<?xml version="1.0" encoding="UTF-8"?>
<svg id="Illustration" xmlns="http://www.w3.org/2000/svg" xmlns:xlink="http://www.w3.org/1999/xlink" viewBox="0 0 2475 1650">
  <defs>
    <style>
      .cls-1 {
        fill: url(#linear-gradient-58);
      }

      .cls-1, .cls-2, .cls-3, .cls-4, .cls-5, .cls-6, .cls-7, .cls-8, .cls-9, .cls-10, .cls-11, .cls-12, .cls-13, .cls-14, .cls-15, .cls-16, .cls-17, .cls-18, .cls-19, .cls-20, .cls-21, .cls-22, .cls-23, .cls-24, .cls-25, .cls-26, .cls-27, .cls-28, .cls-29, .cls-30, .cls-31, .cls-32, .cls-33 {
        fill-rule: evenodd;
      }

      .cls-34 {
        fill: url(#linear-gradient-2);
      }

      .cls-35 {
        fill: url(#_5);
      }

      .cls-36, .cls-37, .cls-38, .cls-39, .cls-40 {
        fill: #fff;
      }

      .cls-41 {
        fill: url(#linear-gradient-17);
      }

      .cls-42 {
        opacity: .88;
      }

      .cls-2 {
        fill: url(#linear-gradient-72);
      }

      .cls-3 {
        fill: url(#linear-gradient-70);
      }

      .cls-43, .cls-37 {
        opacity: .5;
      }

      .cls-44 {
        fill: url(#linear-gradient-15);
      }

      .cls-45 {
        opacity: .9;
      }

      .cls-46 {
        fill: url(#linear-gradient-18);
      }

      .cls-47 {
        fill: url(#linear-gradient-56);
      }

      .cls-48 {
        fill: url(#linear-gradient-28);
      }

      .cls-49 {
        fill: url(#linear-gradient-14);
      }

      .cls-50 {
        fill: url(#linear-gradient-36);
      }

      .cls-51 {
        fill: url(#linear-gradient-20);
      }

      .cls-52 {
        fill: url(#linear-gradient-6);
      }

      .cls-4 {
        fill: url(#linear-gradient-48);
      }

      .cls-5 {
        fill: url(#linear-gradient-44);
      }

      .cls-38 {
        opacity: .94;
      }

      .cls-53 {
        fill: url(#linear-gradient-35);
      }

      .cls-54 {
        fill: url(#linear-gradient-32);
      }

      .cls-55 {
        fill: url(#linear-gradient-11);
      }

      .cls-6 {
        fill: url(#linear-gradient-60);
      }

      .cls-7 {
        fill: url(#linear-gradient-40);
      }

      .cls-56 {
        fill: url(#linear-gradient-10);
      }

      .cls-57, .cls-16 {
        fill: #91b3fa;
      }

      .cls-39 {
        opacity: .57;
      }

      .cls-8 {
        fill: url(#linear-gradient-39);
      }

      .cls-58 {
        fill: url(#linear-gradient-37);
      }

      .cls-9 {
        fill: url(#linear-gradient-49);
      }

      .cls-59 {
        fill: url(#linear-gradient-16);
      }

      .cls-10 {
        fill: url(#linear-gradient-65);
      }

      .cls-11 {
        fill: url(#linear-gradient-59);
      }

      .cls-12 {
        fill: url(#linear-gradient-71);
      }

      .cls-60 {
        fill: url(#linear-gradient-31);
      }

      .cls-61, .cls-23 {
        fill: #7d97f4;
      }

      .cls-13 {
        fill: url(#linear-gradient-41);
      }

      .cls-62 {
        fill: url(#linear-gradient-21);
      }

      .cls-63 {
        fill: url(#linear-gradient-25);
      }

      .cls-14 {
        fill: url(#linear-gradient-51);
      }

      .cls-64 {
        fill: url(#linear-gradient-5);
      }

      .cls-15 {
        fill: url(#linear-gradient-61);
      }

      .cls-65 {
        fill: url(#linear-gradient-54);
      }

      .cls-66 {
        fill: url(#linear-gradient-55);
      }

      .cls-17 {
        fill: url(#linear-gradient-45);
      }

      .cls-67 {
        fill: url(#linear-gradient-34);
      }

      .cls-68 {
        fill: url(#linear-gradient-7);
      }

      .cls-18 {
        fill: url(#linear-gradient-47);
      }

      .cls-19 {
        fill: url(#linear-gradient-68);
      }

      .cls-20 {
        fill: url(#linear-gradient-67);
      }

      .cls-21 {
        fill: url(#linear-gradient-62);
      }

      .cls-22 {
        fill: url(#linear-gradient-64);
      }

      .cls-69 {
        fill: url(#linear-gradient-24);
      }

      .cls-70 {
        fill: url(#linear-gradient-9);
      }

      .cls-24 {
        fill: url(#linear-gradient-66);
      }

      .cls-71 {
        fill: url(#linear-gradient-22);
      }

      .cls-25 {
        fill: url(#linear-gradient-63);
      }

      .cls-72 {
        fill: url(#linear-gradient-3);
      }

      .cls-26 {
        fill: url(#linear-gradient-53);
      }

      .cls-27 {
        fill: url(#linear-gradient-69);
      }

      .cls-73 {
        fill: url(#linear-gradient);
      }

      .cls-74 {
        fill: url(#linear-gradient-27);
      }

      .cls-28 {
        fill: url(#linear-gradient-52);
      }

      .cls-75 {
        fill: url(#linear-gradient-33);
      }

      .cls-76 {
        fill: url(#linear-gradient-38);
      }

      .cls-29 {
        fill: url(#linear-gradient-50);
      }

      .cls-77 {
        fill: url(#linear-gradient-29);
      }

      .cls-78 {
        fill: url(#linear-gradient-30);
      }

      .cls-79 {
        fill: #bdd0fb;
      }

      .cls-80 {
        fill: url(#linear-gradient-23);
      }

      .cls-81 {
        fill: url(#linear-gradient-19);
      }

      .cls-82 {
        fill: url(#_5-2);
      }

      .cls-83 {
        fill: url(#linear-gradient-4);
      }

      .cls-30 {
        fill: url(#linear-gradient-46);
      }

      .cls-31 {
        fill: url(#linear-gradient-57);
      }

      .cls-32 {
        fill: url(#linear-gradient-43);
      }

      .cls-40 {
        opacity: .93;
      }

      .cls-84 {
        fill: url(#linear-gradient-8);
      }

      .cls-85 {
        fill: url(#linear-gradient-12);
      }

      .cls-86 {
        fill: url(#linear-gradient-13);
      }

      .cls-33 {
        fill: url(#linear-gradient-42);
      }

      .cls-87 {
        fill: url(#linear-gradient-26);
      }
    </style>
    <linearGradient id="linear-gradient" x1="-1660" y1="829.29" x2="640" y2="829.29" gradientTransform="translate(750) rotate(-180) scale(1 -1)" gradientUnits="userSpaceOnUse">
      <stop offset="0" stop-color="#dae3fe"/>
      <stop offset="1" stop-color="#e9effd"/>
    </linearGradient>
    <linearGradient id="linear-gradient-2" x1="315.59" y1="1226.45" x2="685.98" y2="1226.45" gradientTransform="matrix(1, 0, 0, 1, 0, 0)" xlink:href="#linear-gradient"/>
    <linearGradient id="linear-gradient-3" x1="1259.3" y1="1292.17" x2="1261.3" y2="1632.17" gradientUnits="userSpaceOnUse">
      <stop offset="0" stop-color="#09005d"/>
      <stop offset="1" stop-color="#1a0f91"/>
    </linearGradient>
    <linearGradient id="linear-gradient-4" x1="1308.87" y1="432.7" x2="1264.87" y2="868.7" xlink:href="#linear-gradient-3"/>
    <linearGradient id="linear-gradient-5" x1="516.77" y1="1370.04" x2="1968.77" y2="542.03" gradientUnits="userSpaceOnUse">
      <stop offset="0" stop-color="#4042e2"/>
      <stop offset="1" stop-color="#4f52ff"/>
    </linearGradient>
    <linearGradient id="linear-gradient-6" x1="1259.11" y1="1228" x2="1259.11" y2="1350" xlink:href="#linear-gradient-3"/>
    <linearGradient id="linear-gradient-7" x1="940.56" y1="1105.44" x2="2473.71" y2="142.34" gradientUnits="userSpaceOnUse">
      <stop offset="0" stop-color="#fe7062"/>
      <stop offset="1" stop-color="#ff928e"/>
    </linearGradient>
    <linearGradient id="linear-gradient-8" x1="1319.55" y1="587.63" x2="1277.54" y2="926.66" xlink:href="#linear-gradient-3"/>
    <linearGradient id="linear-gradient-9" x1="1301.22" y1="1003.84" x2="679.79" y2="1269.8" xlink:href="#linear-gradient-7"/>
    <linearGradient id="linear-gradient-10" x1="2195.8" y1="1277.4" x2="1961.8" y2="1485.4" gradientUnits="userSpaceOnUse">
      <stop offset="0" stop-color="#ff928e"/>
      <stop offset="1" stop-color="#feb3b1"/>
    </linearGradient>
    <linearGradient id="_5" data-name="   5" x1="2238.53" y1="1039.24" x2="2166.53" y2="1157.24" gradientUnits="userSpaceOnUse">
      <stop offset="0" stop-color="#ff928e"/>
      <stop offset=".58" stop-color="#fea5a2"/>
      <stop offset="1" stop-color="#feb3b1"/>
    </linearGradient>
    <linearGradient id="linear-gradient-11" x1="-475.71" y1="949.68" x2="-417.41" y2="949.68" gradientTransform="translate(1704.54) rotate(-180) scale(1 -1)" xlink:href="#linear-gradient-10"/>
    <linearGradient id="linear-gradient-12" x1="-644.44" y1="1104" x2="-644.44" y2="1530" gradientTransform="translate(2714.5)" xlink:href="#linear-gradient-3"/>
    <linearGradient id="linear-gradient-13" x1="-2048.98" y1="1845.78" x2="-2048.98" y2="2271.78" gradientTransform="translate(3598.79 -351.84) rotate(-22.82)" xlink:href="#linear-gradient-3"/>
    <linearGradient id="linear-gradient-14" x1="2162.16" y1="1014.96" x2="2026.16" y2="1220.96" xlink:href="#linear-gradient-3"/>
    <linearGradient id="linear-gradient-15" x1="-412.04" y1="819.62" x2="-370.64" y2="819.62" gradientTransform="translate(1704.54) rotate(-180) scale(1 -1)" xlink:href="#linear-gradient-10"/>
    <linearGradient id="linear-gradient-16" x1="-337.45" y1="864.47" x2="-556.69" y2="1145.74" gradientTransform="translate(1704.54) rotate(-180) scale(1 -1)" xlink:href="#linear-gradient-7"/>
    <linearGradient id="linear-gradient-17" x1="2008.28" y1="696.84" x2="1996.28" y2="822.84" xlink:href="#linear-gradient-10"/>
    <linearGradient id="linear-gradient-18" x1="1920.51" y1="688.48" x2="1908.51" y2="814.48" xlink:href="#linear-gradient-10"/>
    <linearGradient id="linear-gradient-19" x1="2133.9" y1="697.82" x2="2062.9" y2="795.82" xlink:href="#linear-gradient-10"/>
    <linearGradient id="linear-gradient-20" x1="-606.78" y1="851.98" x2="-344.64" y2="851.98" gradientTransform="translate(1704.54) rotate(-180) scale(1 -1)" xlink:href="#linear-gradient-3"/>
    <linearGradient id="linear-gradient-21" x1="407.01" y1="905.27" x2="183.52" y2="1214.26" xlink:href="#linear-gradient-10"/>
    <linearGradient id="linear-gradient-22" x1="1051.58" y1="1733.66" x2="1100.91" y2="1567" gradientTransform="translate(-767.77)" xlink:href="#linear-gradient-3"/>
    <linearGradient id="linear-gradient-23" x1="1239.7" y1="1425.18" x2="1020.26" y2="1597.49" gradientTransform="translate(-767.77)" xlink:href="#linear-gradient-3"/>
    <linearGradient id="linear-gradient-24" x1="1105.47" y1="1427.67" x2="1093.95" y2="1528.23" gradientTransform="translate(-767.77)" xlink:href="#linear-gradient-10"/>
    <linearGradient id="linear-gradient-25" x1="1278.69" y1="1474.83" x2="1059.24" y2="1647.13" gradientTransform="translate(-767.77)" xlink:href="#linear-gradient-3"/>
    <linearGradient id="linear-gradient-26" x1="1148.76" y1="1762.43" x2="1198.1" y2="1595.76" gradientTransform="translate(-767.77)" xlink:href="#linear-gradient-3"/>
    <linearGradient id="linear-gradient-27" x1="1199.33" y1="1438.43" x2="1187.8" y2="1538.98" gradientTransform="translate(-767.77)" xlink:href="#linear-gradient-10"/>
    <linearGradient id="linear-gradient-28" x1="1431.28" y1="831.11" x2="1062.77" y2="1402.94" gradientTransform="translate(-767.77)" xlink:href="#linear-gradient-3"/>
    <linearGradient id="linear-gradient-29" x1="342.36" y1="866.21" x2="283.18" y2="1445.65" xlink:href="#linear-gradient-7"/>
    <linearGradient id="linear-gradient-30" x1="1130.93" y1="784.85" x2="1086.93" y2="974.96" gradientTransform="translate(-767.77)" xlink:href="#linear-gradient-10"/>
    <linearGradient id="linear-gradient-31" x1="480.62" y1="644.89" x2="434.12" y2="697.39" xlink:href="#linear-gradient-10"/>
    <linearGradient id="linear-gradient-32" x1="-744.26" y1="-405.95" x2="-651.03" y2="-405.95" gradientTransform="translate(1138.75 544.78) rotate(-46.73)" xlink:href="#linear-gradient-3"/>
    <linearGradient id="linear-gradient-33" x1="-798.96" y1="-348.97" x2="-736.36" y2="-413.2" gradientTransform="translate(1138.75 544.78) rotate(-46.73)" xlink:href="#linear-gradient-10"/>
    <linearGradient id="linear-gradient-34" x1="612.89" y1="776.94" x2="318.89" y2="900.94" gradientUnits="userSpaceOnUse">
      <stop offset="0" stop-color="#e1473d"/>
      <stop offset="1" stop-color="#e9605a"/>
    </linearGradient>
    <linearGradient id="linear-gradient-35" x1="1079.97" y1="1220.39" x2="1049.07" y2="1275.39" gradientTransform="translate(-767.77)" xlink:href="#linear-gradient-3"/>
    <linearGradient id="linear-gradient-36" x1="477.19" y1="879.08" x2="413.84" y2="1499.32" xlink:href="#linear-gradient-7"/>
    <linearGradient id="linear-gradient-37" x1="705.92" y1="643.52" x2="647.42" y2="801.01" xlink:href="#linear-gradient-10"/>
    <linearGradient id="linear-gradient-38" x1="758.17" y1="662.93" x2="699.67" y2="820.42" xlink:href="#linear-gradient-10"/>
    <linearGradient id="linear-gradient-39" x1="-675.55" y1="973.77" x2="-582.22" y2="843.77" gradientTransform="translate(-912.89 -1718.83) rotate(119.56)" xlink:href="#linear-gradient-3"/>
    <linearGradient id="linear-gradient-40" x1="870.7" y1="1266.07" x2="654.7" y2="1358.07" xlink:href="#linear-gradient-10"/>
    <linearGradient id="linear-gradient-41" x1="784.05" y1="-3425.81" x2="799.41" y2="-3565.94" gradientTransform="translate(-367.1 -2371.39) rotate(152.86)" xlink:href="#linear-gradient-10"/>
    <linearGradient id="linear-gradient-42" x1="794.45" y1="-3422.85" x2="810.65" y2="-3570.69" gradientTransform="translate(-367.1 -2371.39) rotate(152.86)" xlink:href="#linear-gradient-10"/>
    <linearGradient id="linear-gradient-43" x1="1820.06" y1="-2885.91" x2="1836.26" y2="-3033.75" gradientTransform="translate(435.94 -2371.39) rotate(27.14) scale(1 -1)" xlink:href="#linear-gradient-10"/>
    <linearGradient id="linear-gradient-44" x1="1829.68" y1="-2884.86" x2="1845.88" y2="-3032.7" gradientTransform="translate(435.94 -2371.39) rotate(27.14) scale(1 -1)" xlink:href="#linear-gradient-10"/>
    <linearGradient id="linear-gradient-45" x1="669.45" y1="1442.95" x2="647.45" y2="1490.95" xlink:href="#linear-gradient-3"/>
    <linearGradient id="linear-gradient-46" x1="917.31" y1="1181.16" x2="771.31" y2="1307.16" xlink:href="#linear-gradient-10"/>
    <linearGradient id="linear-gradient-47" x1="-177.24" y1="1190.63" x2="-190.48" y2="1084.73" gradientTransform="translate(453.79 -53.91) rotate(-19.91)" xlink:href="#linear-gradient-10"/>
    <linearGradient id="linear-gradient-48" x1="628.46" y1="1145.07" x2="598.32" y2="1332.1" xlink:href="#linear-gradient-7"/>
    <linearGradient id="linear-gradient-49" x1="617.98" y1="1122" x2="617.98" y2="1216.67" xlink:href="#linear-gradient-10"/>
    <linearGradient id="linear-gradient-50" x1="-390.01" y1="1073.88" x2="-435.2" y2="987.54" gradientTransform="translate(531.74 -33.54) rotate(-25.7)" xlink:href="#linear-gradient-3"/>
    <linearGradient id="linear-gradient-51" x1="234.4" y1="1957.21" x2="189.07" y2="1877.21" gradientTransform="translate(453.79 -53.91) rotate(-19.91)" xlink:href="#linear-gradient-10"/>
    <linearGradient id="linear-gradient-52" x1="-214.51" y1="1151.49" x2="-257.06" y2="1070.18" gradientTransform="translate(453.79 -53.91) rotate(-19.91)" xlink:href="#linear-gradient-3"/>
    <linearGradient id="linear-gradient-53" x1="203.06" y1="1974.97" x2="157.72" y2="1894.97" gradientTransform="translate(453.79 -53.91) rotate(-19.91)" xlink:href="#linear-gradient-10"/>
    <linearGradient id="linear-gradient-54" x1="-1940.18" y1="1057.01" x2="-1891.85" y2="1166.97" gradientTransform="translate(3507.42 -266.75) rotate(-12.16)" xlink:href="#linear-gradient-10"/>
    <linearGradient id="linear-gradient-55" x1="-1938.91" y1="1065.34" x2="-1886.28" y2="1185.07" gradientTransform="translate(3507.42 -266.75) rotate(-12.16)" xlink:href="#linear-gradient-10"/>
    <linearGradient id="linear-gradient-56" x1="1816.59" y1="998.7" x2="1814.59" y2="1032.03" xlink:href="#linear-gradient-10"/>
    <linearGradient id="linear-gradient-57" x1="-692.27" y1="1077.32" x2="-747.63" y2="1126.17" gradientTransform="translate(1153.34) rotate(-180) scale(1 -1)" xlink:href="#linear-gradient-34"/>
    <linearGradient id="linear-gradient-58" x1="-1525.74" y1="955.81" x2="-1480.81" y2="955.81" gradientTransform="translate(674.09 -79) rotate(-169.81) scale(1 -1)" xlink:href="#linear-gradient-34"/>
    <linearGradient id="linear-gradient-59" x1="-1399.52" y1="914.75" x2="-1439.87" y2="976.02" gradientTransform="translate(674.09 -79) rotate(-169.81) scale(1 -1)" xlink:href="#linear-gradient-34"/>
    <linearGradient id="linear-gradient-60" x1="-860.35" y1="1883.84" x2="-824.35" y2="1785.17" gradientTransform="translate(1153.34) rotate(-180) scale(1 -1)" xlink:href="#linear-gradient-3"/>
    <linearGradient id="linear-gradient-61" x1="-912.6" y1="1864.78" x2="-876.6" y2="1766.11" gradientTransform="translate(1153.34) rotate(-180) scale(1 -1)" xlink:href="#linear-gradient-3"/>
    <linearGradient id="linear-gradient-62" x1="1911.27" y1="1148.07" x2="1926.6" y2="1266.74" xlink:href="#linear-gradient-10"/>
    <linearGradient id="linear-gradient-63" x1="2000.33" y1="1338.67" x2="1964.33" y2="1392.67" xlink:href="#linear-gradient-10"/>
    <linearGradient id="linear-gradient-64" x1="1987.9" y1="1319.03" x2="1931.9" y2="1381.7" xlink:href="#linear-gradient-10"/>
    <linearGradient id="linear-gradient-65" x1="-901.62" y1="1382.16" x2="-785.41" y2="1222.49" gradientTransform="translate(1153.34) rotate(-180) scale(1 -1)" xlink:href="#linear-gradient-10"/>
    <linearGradient id="linear-gradient-66" x1="-805.02" y1="1027.84" x2="-701.02" y2="1567.84" gradientTransform="translate(1153.34) rotate(-180) scale(1 -1)" xlink:href="#linear-gradient-7"/>
    <linearGradient id="linear-gradient-67" x1="-1027.33" y1="1264.58" x2="-923.33" y2="1804.58" gradientTransform="translate(792.11 15.69) rotate(174.24) scale(1 -1)" xlink:href="#linear-gradient-7"/>
    <linearGradient id="linear-gradient-68" x1="-743.49" y1="1215.17" x2="-757.19" y2="1244.93" gradientTransform="translate(1153.34) rotate(-180) scale(1 -1)" xlink:href="#linear-gradient-34"/>
    <linearGradient id="linear-gradient-69" x1="1922.19" y1="1099.31" x2="1905.53" y2="1173.97" xlink:href="#linear-gradient-10"/>
    <linearGradient id="linear-gradient-70" x1="1889.74" y1="1092.06" x2="1873.07" y2="1166.73" xlink:href="#linear-gradient-10"/>
    <linearGradient id="linear-gradient-71" x1="1953.98" y1="1106.4" x2="1937.31" y2="1181.07" xlink:href="#linear-gradient-10"/>
    <linearGradient id="linear-gradient-72" x1="-1399.82" y1="914.55" x2="-1440.17" y2="975.82" gradientTransform="translate(674.09 -79) rotate(-169.81) scale(1 -1)" xlink:href="#linear-gradient-34"/>
    <linearGradient id="_5-2" data-name="   5" x1="1894.4" y1="929.62" x2="1889.4" y2="1045.62" xlink:href="#_5"/>
  </defs>
  <path class="cls-73" d="M2210.39,730.54c60.07-109.56,192.63-207.29,161.48-344.46-29.39-129.36-230.04-249.06-357.57-173.26-81.21,48.27-117.9,121.44-221.76,132.87-79.51,8.75-182.48,3.84-245.33-50.15-48.29-41.48-78.63-87.47-138.41-117.96-103.54-52.8-228.4-58.55-343.15-48.07-167.01,15.25-233.53,183.6-378.26,236.64-88.72,32.51-189.75,19.12-280.06,.17-83.78-17.58-195.84-69.12-259.5,14.23-61.08,79.97-40.06,241.72,5.84,325.03,31.39,56.98,106.64,79.36,133.69,140.35,27.67,62.38-15.74,119.16-57.81,165.17-96.78,105.85-79.93,423.37,109.7,433.41,90.76,4.8,181.71-39.05,272.05-17.23,74.04,17.89,122.07,85.39,200.48,92.96,74.48,7.19,146.32-6.93,213.97-35.6,76.77-32.53,148.57-73.23,233.76-82.43,80.73-8.72,168.88-2.09,249.38,6.66,68.34,7.42,135.82,21.72,199.83,45.84,60.59,22.83,117.6,64.1,183.84,70.33,154.23,14.51,354.49,24.59,465.91-98.86,68.77-76.19,65.83-191.57,8.47-272.85-34.56-48.98-103.52-60.76-134.7-104.62-49.51-69.69-63.31-242.52-21.83-318.17Z"/>
  <g>
    <g>
      <g>
        <path class="cls-79" d="M1056.02,948.73c-21.92-104.36-75.88-191.28-144.61-246.18-61.45-49.08-102.16-119.87-112.04-197.81-1.04-8.19-2.42-16.44-4.16-24.73-26.37-125.51-124.64-211.09-219.5-191.17-94.86,19.93-150.39,137.82-124.02,263.33,5.39,25.66,13.79,49.65,24.55,71.41,34.35,69.43,42.5,149.31,19.86,223.43-20.23,66.24-24.23,142.75-7.79,220.98,24.51,116.69,89.08,211.58,169.57,264.29,30.45,19.94,57.16,45.28,78.43,74.78,35.35,49.01,89.39,75.9,142.65,64.72,57.45-12.07,97.91-65.07,107.04-130.84,5.17-37.21,17.59-72.93,35.33-106.08,41.87-78.26,56.86-180.62,34.7-286.13Z"/>
        <path class="cls-79" d="M636.97,415.37c29.82,80.34,57.03,161.58,83.39,243.1,6.6,20.38,12.87,40.86,19.21,61.32l9.5,30.69,9.24,30.77c6.08,20.54,12.45,40.99,18.3,61.6l17.56,61.82c11.18,41.36,22.71,82.63,33.11,124.2,5.23,20.78,10.87,41.45,15.68,62.33l14.72,62.57c18.78,83.62,35.47,167.75,47.87,252.56l-3.65,.57-11.69-63.1-2.89-15.78-3.28-15.7-6.62-31.39-6.56-31.4c-2.17-10.47-4.73-20.86-7.07-31.29-4.83-20.84-9.49-41.71-14.45-62.51-20.39-83.09-41.88-165.91-65.08-248.27-11.91-41.09-23.47-82.29-35.67-123.3l-9.07-30.78-9.32-30.71c-6.2-20.48-12.41-40.95-18.82-61.37-12.47-40.93-25.24-81.78-38.34-122.53-12.88-40.81-26.16-81.51-39.55-122.15l3.48-1.24Z"/>
        <g class="cls-43">
          <path class="cls-79" d="M526.93,647.59c-.88-.17-1.69-.71-2.16-1.56-55.94-101.5-46.93-177.86-29.52-224.04,18.91-50.17,50.68-75.85,52.03-76.92,1.34-1.07,3.3-.85,4.37,.5,1.07,1.34,.85,3.3-.49,4.37-.32,.25-31.94,25.88-50.19,74.56-16.84,44.91-25.44,119.27,29.26,218.53,.83,1.51,.28,3.4-1.22,4.23-.66,.36-1.39,.46-2.07,.33Z"/>
        </g>
      </g>
      <g>
        <path class="cls-79" d="M655.62,1178.88c-35.6-48.21-83.46-80.05-131.37-92.09-42.83-10.76-80.16-37.44-103.44-74.96-2.45-3.94-5.08-7.84-7.91-11.67-42.82-57.98-112.97-78.81-156.69-46.53-43.72,32.28-44.44,105.46-1.62,163.44,8.76,11.86,18.65,22.16,29.24,30.76,33.77,27.47,56.62,66.38,62.42,109.53,5.18,38.56,21.05,78.58,47.74,114.72,39.81,53.91,94.95,87.35,148.34,95.53,20.19,3.09,39.75,9.82,57.5,19.93,29.5,16.81,63.35,17.95,87.9-.17,26.48-19.55,34.7-56.06,23.97-91.79-6.07-20.22-8.1-41.36-6.81-62.43,3.04-49.74-13.27-105.54-49.27-154.28Z"/>
        <path class="cls-34" d="M317.07,1004.01c34.01,34.1,66.9,69.27,99.42,104.78,8.13,8.87,16.13,17.88,24.15,26.85l12.03,13.47,11.92,13.57c7.91,9.08,15.94,18.04,23.75,27.21l23.42,27.5c15.38,18.53,30.92,36.93,45.96,55.74,7.53,9.4,15.24,18.64,22.59,28.19l22.15,28.54c29.15,38.35,57.35,77.44,83.52,117.89l-1.73,1.14-20.73-29.52-5.17-7.39-5.35-7.26-10.73-14.5-10.7-14.51c-3.56-4.84-7.29-9.56-10.93-14.34-7.34-9.52-14.6-19.1-22-28.57-29.84-37.7-60.19-75.01-91.3-111.69-15.69-18.22-31.23-36.57-47.05-54.69l-11.83-13.62-11.94-13.52c-7.96-9.02-15.91-18.03-23.96-26.97-15.94-18.01-32.01-35.91-48.23-53.67-16.12-17.85-32.42-35.55-48.76-53.2l1.49-1.44Z"/>
        <g class="cls-43">
          <path class="cls-36" d="M328.28,1143.22c-.51,.16-1.09,.09-1.58-.23-57.87-38.36-74.28-81.4-77.86-110.75-3.89-31.89,5.85-54.34,6.27-55.28,.42-.94,1.52-1.37,2.46-.95,.94,.42,1.37,1.52,.95,2.46-.1,.22-9.77,22.6-5.95,53.52,3.52,28.52,19.6,70.39,76.2,107.9,.86,.57,1.09,1.73,.52,2.58-.25,.37-.61,.63-1.01,.75Z"/>
        </g>
      </g>
    </g>
    <g>
      <g>
        <path class="cls-79" d="M1550.83,1015.69c18.1-86.16,62.65-157.93,119.4-203.26,50.73-40.53,84.35-98.97,92.51-163.32,.86-6.76,2-13.58,3.44-20.42,21.77-103.62,102.91-174.29,181.23-157.84,78.32,16.45,124.17,113.79,102.4,217.42-4.45,21.19-11.39,40.99-20.27,58.96-28.36,57.33-35.09,123.28-16.4,184.47,16.71,54.69,20,117.86,6.43,182.45-20.24,96.34-73.55,174.69-140,218.21-25.14,16.46-47.19,37.39-64.76,61.74-29.18,40.47-73.8,62.67-117.77,53.43-47.44-9.96-80.84-53.73-88.37-108.02-4.27-30.73-14.52-60.21-29.17-87.59-34.57-64.61-46.95-149.13-28.65-236.24Z"/>
        <path class="cls-39" d="M1896.81,575.33c-24.62,66.33-47.09,133.41-68.85,200.71-5.45,16.82-10.63,33.73-15.86,50.63l-7.84,25.34-7.63,25.41c-5.02,16.96-10.28,33.85-15.11,50.86l-14.5,51.04c-9.23,34.15-18.75,68.22-27.34,102.54-4.32,17.15-8.98,34.22-12.95,51.46l-12.15,51.66c-15.51,69.04-29.29,138.5-39.53,208.52l3.01,.47,9.66-52.1,2.38-13.03,2.71-12.97,5.47-25.92,5.42-25.92c1.79-8.64,3.9-17.22,5.84-25.84,3.99-17.2,7.84-34.44,11.93-51.61,16.83-68.6,34.58-136.98,53.73-204.99,9.84-33.93,19.38-67.94,29.45-101.8l7.49-25.42,7.7-25.35c5.12-16.91,10.24-33.81,15.54-50.67,10.3-33.8,20.84-67.53,31.65-101.16,10.64-33.7,21.6-67.3,32.66-100.86l-2.87-1.02Z"/>
        <path class="cls-37" d="M1987.67,767.06c.73-.14,1.39-.59,1.78-1.29,46.18-83.8,38.74-146.85,24.37-184.98-15.61-41.42-41.85-62.63-42.95-63.51-1.11-.89-2.72-.7-3.61,.41-.88,1.11-.7,2.72,.41,3.61,.26,.21,26.37,21.36,41.44,61.56,13.91,37.08,21,98.48-24.16,180.43-.68,1.24-.23,2.81,1.01,3.49,.54,.3,1.15,.38,1.71,.28Z"/>
      </g>
      <g>
        <path class="cls-57" d="M1888.6,1167.64c33.61-45.51,78.79-75.57,124.02-86.93,40.43-10.16,75.67-35.35,97.65-70.77,2.31-3.72,4.8-7.4,7.47-11.01,40.42-54.74,106.65-74.4,147.92-43.93,41.27,30.48,41.96,99.56,1.53,154.29-8.27,11.19-17.61,20.92-27.6,29.04-31.88,25.93-53.45,62.67-58.93,103.4-4.89,36.4-19.87,74.18-45.07,108.3-37.58,50.89-89.63,82.46-140.03,90.18-19.06,2.92-37.53,9.27-54.28,18.82-27.85,15.87-59.81,16.95-82.98-.16-24.99-18.46-32.76-52.92-22.63-86.65,5.73-19.09,7.64-39.05,6.43-58.94-2.87-46.96,12.53-99.63,46.51-145.64Z"/>
        <path class="cls-39" d="M2208.19,1002.56c-32.11,32.19-63.16,65.39-93.86,98.91-7.68,8.38-15.22,16.88-22.8,25.35l-11.36,12.71-11.25,12.81c-7.47,8.57-15.05,17.03-22.42,25.69l-22.11,25.96c-14.52,17.49-29.19,34.86-43.38,52.62-7.11,8.87-14.39,17.6-21.32,26.61l-20.91,26.94c-27.52,36.2-54.14,73.11-78.85,111.29l1.63,1.08,19.57-27.86,4.88-6.97,5.05-6.85,10.12-13.69,10.1-13.7c3.36-4.57,6.88-9.02,10.32-13.54,6.93-8.99,13.78-18.03,20.77-26.97,28.17-35.59,56.82-70.81,86.19-105.44,14.82-17.2,29.48-34.53,44.42-51.62l11.17-12.85,11.27-12.76c7.51-8.51,15.02-17.02,22.62-25.46,15.05-17,30.22-33.9,45.53-50.67,15.22-16.85,30.6-33.56,46.03-50.22l-1.4-1.36Z"/>
        <path class="cls-37" d="M2197.61,1133.97c.49,.15,1.03,.09,1.49-.22,54.63-36.21,70.13-76.84,73.5-104.55,3.67-30.1-5.53-51.3-5.92-52.18-.39-.89-1.43-1.29-2.32-.9-.89,.39-1.29,1.43-.9,2.32,.09,.21,9.23,21.34,5.62,50.52-3.33,26.92-18.51,66.45-71.93,101.86-.81,.54-1.03,1.63-.49,2.44,.23,.35,.57,.6,.95,.71Z"/>
      </g>
    </g>
  </g>
  <g>
    <rect class="cls-72" x="1199.26" y="1350.23" width="121.47" height="121.47"/>
    <g>
      <path class="cls-83" d="M589.12,1349.98c0,13.22,10.82,24.03,24.05,24.03H1913.89c13.23,0,24.05-10.81,24.05-24.03l10.82-747.49c0-13.22-15.57-39.02-44.11-37.08l-1271.2-32.89c-16.6-.43-32.65,5.96-44.4,17.68-11.75,11.72-18.19,27.74-17.79,44.32l17.86,755.46Z"/>
      <path class="cls-64" d="M612.86,1313.18c0,12.31,10.24,22.38,22.76,22.38H1882.52c12.52,0,22.76-10.07,22.76-22.38l10.21-667.25c-1.2-40.15-37-54.59-58.71-53.73l-1218.37-32.14c-11.66-.31-22.94,4.11-31.2,12.21-8.26,8.1-12.77,19.19-12.47,30.65l18.12,710.26Z"/>
      <g>
        <path class="cls-57" d="M1891.8,1004.3h-.05c-1.7-.02-3.06-1.43-3.04-3.13l.81-55.03c.03-1.7,1.42-2.94,3.13-3.04,1.7,.02,3.06,1.43,3.04,3.13l-.81,55.03c-.02,1.69-1.4,3.04-3.08,3.04Z"/>
        <path class="cls-57" d="M1893.78,869.45h-.05c-1.7-.02-3.06-1.43-3.04-3.13l3.1-210.77c-.06-12.6-3.89-22.65-11.37-29.83-13.95-13.37-36.09-12.68-37.04-12.65l-389.39-10.44c-1.7-.04-3.04-1.46-3-3.16,.04-1.67,1.42-3,3.08-3,.03,0,.06,0,.08,0l389.18,10.44c2.41-.11,25.8-.54,41.35,14.36,8.74,8.38,13.21,19.92,13.27,34.31l-3.1,210.83c-.02,1.69-1.4,3.04-3.08,3.04Z"/>
      </g>
    </g>
    <path class="cls-52" d="M1550.28,1450.68H972.81c-11.38,0-20.61,8.85-20.61,20.23,0,9.68,7.84,17.14,17.52,17.14h580.56c9.68,0,15.74-7.81,15.74-17.49v-3.09c0-9.68-6.07-16.8-15.74-16.8Z"/>
  </g>
  <g>
    <circle class="cls-61" cx="1417.39" cy="270.28" r="129.77" transform="translate(224.03 1081.41) rotate(-45)"/>
    <path class="cls-38" d="M1439.95,189.57c-3.6-1.28-7.38,1.42-7.38,5.24v99.5c-7.54-6.21-18.07-10.07-29.75-10.07-22.93,0-41.51,14.87-41.51,33.21s18.58,33.21,41.51,33.21,41.51-14.87,41.51-33.21c0-.16-.03-.31-.03-.47h.03v-98.91c16.44,2.49,27.62,14.98,34.16,25.18,2.75,4.28,9.33,2.12,9.06-2.96-1.64-30.83-32.99-45.51-47.6-50.71Z"/>
  </g>
  <g>
    <circle class="cls-61" cx="653.61" cy="270.75" r="129.77" transform="translate(0 541.47) rotate(-45)"/>
    <g class="cls-42">
      <path class="cls-36" d="M739.74,338.72c0,2.58-2.09,4.67-4.67,4.67h-161.19c-2.58,0-4.67-2.09-4.67-4.67V205.57c0-2.58,2.09-4.67,4.67-4.67h161.19c2.58,0,4.67,2.09,4.67,4.67v133.15Zm-161.19-4.67h151.84v-123.81h-151.84v123.81Z"/>
      <path class="cls-36" d="M696.75,249.63c-1.28-1.66-3.47-2.64-5.57-2.66-2.1-.01-4.19,.94-5.5,2.59l-34.43,43.42c-1.18,1.49-2.96,2.43-4.87,2.57-1.9,.14-3.79-.52-5.18-1.82l-26.22-24.53c-2.59-2.42-6.18-2.46-8.81-.07l-32.3,29.66v39.94h161.19v-39.94l-38.32-49.15Z"/>
      <circle class="cls-36" cx="616.82" cy="235.51" r="16.55" transform="translate(14.13 505.14) rotate(-45)"/>
    </g>
  </g>
  <g>
    <path class="cls-68" d="M1709.6,1171.92l-908.16-22.11c-15.6-.38-28.05-13.14-28.05-28.75v-449.95c0-15.88,12.87-28.75,28.75-28.75h895.27c15.57,0,28.32,12.4,28.74,27.97l12.89,472.06c.45,16.46-12.98,29.93-29.44,29.53Z"/>
    <path class="cls-84" d="M773.39,1052.48v68.59c0,15.61,12.45,28.37,28.05,28.75l908.16,22.11c16.46,.4,29.89-13.07,29.44-29.53l-2.45-89.91H773.39Z"/>
    <g>
      <path class="cls-61" d="M800.42,1102.87l.83,8.28c.76,7.58,7.14,13.36,14.77,13.36h802.05c8.2,0,14.84-6.64,14.84-14.84h0c0-8.14-6.55-14.76-14.69-14.84l-802.88-8.28c-8.84-.09-15.8,7.52-14.92,16.32Z"/>
      <path class="cls-70" d="M1313.71,1115.01c-.94-7.71-2.09-15.51-3.19-23.35l-495.17-5.11c-8.84-.09-15.8,7.52-14.92,16.32l.83,8.28c.76,7.59,7.14,13.36,14.77,13.36h499.08c-.52-3.33-1.02-6.52-1.38-9.5Z"/>
      <path class="cls-36" d="M1344.51,1107.32c0,14.82-12.01,26.83-26.83,26.83s-26.83-12.01-26.83-26.83,12.01-26.83,26.83-26.83,26.83,12.01,26.83,26.83Z"/>
    </g>
    <rect class="cls-61" x="1651.36" y="1087.73" width="16.02" height="36.42"/>
    <rect class="cls-61" x="1695.06" y="1077.53" width="16.02" height="46.62"/>
    <rect class="cls-61" x="1674.67" y="1068.79" width="14.57" height="55.36"/>
    <path class="cls-61" d="M773.04,1207.01l.75,77.01c.11,11.02,9.12,19.86,20.14,19.76l915.67-8.87c11.02-.11,19.86-9.12,19.76-20.14l-.51-52.21c-.1-10.81-8.8-19.57-19.6-19.75l-915.91-15.93c-11.23-.2-20.4,8.91-20.3,20.14Z"/>
    <rect class="cls-79" x="801.26" y="1215.73" width="696.8" height="17.92" rx="2.23" ry="2.23"/>
    <rect class="cls-79" x="801.26" y="1241.61" width="491.74" height="13.94" rx="2.23" ry="2.23"/>
    <rect class="cls-79" x="801.26" y="1267.49" width="266.78" height="9.95" rx="2.05" ry="2.05"/>
    <g class="cls-45">
      <path class="cls-36" d="M1324.91,867.83l-108.36-62.56c-1.26-.73-2.56-.73-3.82,0-1.26,.73-1.78,2.08-1.78,3.54v125.13c0,1.46,.52,2.81,1.78,3.54,1.26,.73,2.69,.73,3.95,0l108.3-62.56c1.26-.73,2.01-2.08,2.01-3.54s-.81-2.81-2.07-3.54Z"/>
      <path class="cls-36" d="M1255.82,986.89c-63.7,0-115.53-51.83-115.53-115.53s51.83-115.53,115.53-115.53,115.53,51.83,115.53,115.53-51.83,115.53-115.53,115.53Zm0-224.63c-60.16,0-109.1,48.94-109.1,109.1s48.94,109.1,109.1,109.1,109.1-48.94,109.1-109.1-48.94-109.1-109.1-109.1Z"/>
    </g>
  </g>
  <g>
    <circle class="cls-61" cx="2085.26" cy="364.2" r="129.77" transform="translate(353.23 1581.17) rotate(-45)"/>
    <path class="cls-40" d="M2171.06,282.66h-170.53v154.18h170.53v-154.18Zm-147.17,26.31c0,.95-.77,1.72-1.72,1.72h-15.24c-.95,0-1.72-.77-1.72-1.72v-17.58c0-.95,.77-1.72,1.72-1.72h15.24c.95,0,1.72,.77,1.72,1.72v17.58Zm28.03,0c0,.95-.77,1.72-1.72,1.72h-15.24c-.95,0-1.72-.77-1.72-1.72v-17.58c0-.95,.77-1.72,1.72-1.72h15.24c.95,0,1.72,.77,1.72,1.72v17.58Zm28.03,0c0,.95-.77,1.72-1.72,1.72h-15.24c-.95,0-1.72-.77-1.72-1.72v-17.58c0-.95,.77-1.72,1.72-1.72h15.24c.95,0,1.72,.77,1.72,1.72v17.58Zm25.7,0c0,.95-.77,1.72-1.72,1.72h-15.24c-.95,0-1.72-.77-1.72-1.72v-17.58c0-.95,.77-1.72,1.72-1.72h15.24c.95,0,1.72,.77,1.72,1.72v17.58Zm28.03,0c0,.95-.77,1.72-1.72,1.72h-15.24c-.95,0-1.72-.77-1.72-1.72v-17.58c0-.95,.77-1.72,1.72-1.72h15.24c.95,0,1.72,.77,1.72,1.72v17.58Zm28.03,0c0,.95-.77,1.72-1.72,1.72h-15.24c-.95,0-1.72-.77-1.72-1.72v-17.58c0-.95,.77-1.72,1.72-1.72h15.24c.95,0,1.72,.77,1.72,1.72v17.58Zm-137.83,116.8c0,.95-.77,1.72-1.72,1.72h-15.24c-.95,0-1.72-.77-1.72-1.72v-17.58c0-.95,.77-1.72,1.72-1.72h15.24c.95,0,1.72,.77,1.72,1.72v17.58Zm28.03,0c0,.95-.77,1.72-1.72,1.72h-15.24c-.95,0-1.72-.77-1.72-1.72v-17.58c0-.95,.77-1.72,1.72-1.72h15.24c.95,0,1.72,.77,1.72,1.72v17.58Zm28.03,0c0,.95-.77,1.72-1.72,1.72h-15.24c-.95,0-1.72-.77-1.72-1.72v-17.58c0-.95,.77-1.72,1.72-1.72h15.24c.95,0,1.72,.77,1.72,1.72v17.58Zm25.7,0c0,.95-.77,1.72-1.72,1.72h-15.24c-.95,0-1.72-.77-1.72-1.72v-17.58c0-.95,.77-1.72,1.72-1.72h15.24c.95,0,1.72,.77,1.72,1.72v17.58Zm28.03,0c0,.95-.77,1.72-1.72,1.72h-15.24c-.95,0-1.72-.77-1.72-1.72v-17.58c0-.95,.77-1.72,1.72-1.72h15.24c.95,0,1.72,.77,1.72,1.72v17.58Zm28.03,0c0,.95-.77,1.72-1.72,1.72h-15.24c-.95,0-1.72-.77-1.72-1.72v-17.58c0-.95,.77-1.72,1.72-1.72h15.24c.95,0,1.72,.77,1.72,1.72v17.58Z"/>
  </g>
  <g>
    <path class="cls-56" d="M2085.42,1187.03l48.71,12.18-12.18,91.34s18.27,18.27,24.36,42.62c6.09,24.36,11.7,126.63,11.7,126.63l11.56,6.99,1.41,5.83-33.63,45.22,5.58-35.99c.89-5.71-.65-17.3-.17-17.54-18.27-48.71-57.34-185.94-57.34-185.94v-91.34Z"/>
    <path class="cls-35" d="M2071.19,1473.24c.53,0,1.05,.03,1.58,0-2.35-29.37-13.11-158.61-23.88-207.06-12.18-54.8,18.27-164.41,18.27-164.41l54.8,54.8-30.45,103.52c20.86,31.3-3.4,214.58-2.88,214.5l-.03,.41,7.94,10.92-.97,5.92-48.53,28.64,19.1-31.01c3.03-4.92,4.71-10.5,5.05-16.23Z"/>
    <path class="cls-55" d="M2132.83,858.72s106.7,120.26,0,181.92l-10.87-7.87s52.97-50.73,0-112.82l10.87-61.22Z"/>
    <path class="cls-85" d="M2043.85,1524.98h15.49c2.9,0,5.63-1.33,7.4-3.63,4.83-6.27,14.83-18.51,19.61-18.83,6.44-.43,5.62,22.46,5.62,22.46h3.61l4.57-28.44c1.15-7.16-2.41-14.25-8.84-17.6h0s-1.47,10.89-9.45,15.7c-7.98,4.82-32.48,22.06-32.48,22.06,0,0-3-.43-6.29,.17-4.89,.88-4.2,8.12,.76,8.12Z"/>
    <path class="cls-86" d="M2136.15,1523.21l14.28-6.01c2.67-1.12,4.68-3.41,5.41-6.21,2.02-7.65,6.49-22.82,10.78-24.97,5.77-2.89,13.89,18.53,13.89,18.53l3.33-1.4-6.82-27.99c-1.71-7.04-7.75-12.2-14.97-12.8h0s2.86,10.6-2.63,18.14c-5.49,7.53-21.38,32.93-21.38,32.93,0,0-2.93,.77-5.74,2.6-4.16,2.71-.73,9.11,3.85,7.19Z"/>
    <path class="cls-49" d="M2053.2,1009.11s1.79,10.98-.83,41.15c-2.62,30.17-15.17,101.02-12.61,168.8,0,0,35.65,8.31,97.6,4.37,0,0,26.14-105.83,19.77-146.06-6.37-40.23-40.92-69.09-40.92-69.09l-63.01,.83Z"/>
    <polygon class="cls-44" points="2079.54 807.48 2075.18 858.72 2116.59 858.72 2106.29 780.51 2079.54 807.48"/>
    <path class="cls-59" d="M2128.85,851.64c-14.29-.79-46.24-2.25-68.87-1.01-11.92,.65-21.9,9.2-24.34,20.88l-5.52,26.45c-2.06,9.85-1.75,20.05,.9,29.76l22.17,81.39s19.72,11.85,63.01-.83c0,0,38.02-90.66,22.46-148.66-1.21-4.5-5.16-7.72-9.82-7.98Z"/>
    <path class="cls-41" d="M2036.73,866.76c-6.1,16.07-11.61,32.91-17.52,48.69-3.01,7.9-6.06,15.64-9.33,22.75-1.65,3.54-3.47,6.79-5.13,9.74-1.67,2.92-3.54,5.35-4.52,6.47-.19,.17,.45,.29,.67,.3,.13,.02-4.12,.7-5.43,.92l-5.1-.03c-7.31-.38-15.58-1.66-23.88-3.28-16.74-3.12-34.14-7.5-52.01-10.82l-.14-.03c-3.42-.63-6.71,1.62-7.34,5.04-.42,2.25,.43,4.46,2.03,5.88,7.21,6.34,14.84,11.55,22.77,16.62,3.99,2.44,8.04,4.83,12.17,7.12,4.21,2.14,8.42,4.3,12.8,6.3,8.82,3.84,17.93,7.38,28.42,9.66,2.76,.46,5.48,.95,8.32,1.33,3.18,.11,6.07,.39,9.55,.19,1.85-.18,3.7-.41,5.55-.68,.99-.17,1.71-.19,2.91-.52,1.27-.38,2.53-.81,3.78-1.27,2.61-.94,4.29-2.07,6.41-3.25,1.76-1.16,3.36-2.37,4.92-3.61,5.74-4.89,9.3-9.74,12.44-14.4,3.13-4.65,5.61-9.31,7.84-13.88,4.47-9.13,7.96-18.17,10.79-27.27,5.74-18.25,9.63-36.18,11.27-55.23,.79-9.12-5.97-17.16-15.1-17.94-7.55-.65-14.36,3.87-16.92,10.62l-.22,.59Z"/>
    <path class="cls-46" d="M1920.1,949.68l-7.39-17.54-38.89-9.69s-3.11,6.74,13.22,9.69c0,0-5.83,6.45-2.72,14.03,3.11,7.58,36.16,15.18,35.78,3.51Z"/>
    <path class="cls-81" d="M2062.01,748.3c-1.48,.87-13.13,41.95-3.37,59.18,9.76,17.22,39.57-2.07,47.65-26.98,8.08-24.91-4.9-55.43-44.28-32.2Z"/>
    <path class="cls-51" d="M2139.27,780.51c6.69,32.76,28.84,23.79,44.53,38.37,25.43,23.62,61.81-.73,97.17,21.65,25.53,16.16,37.83,57.5,25.58,90.88-16.97,46.23-74.96,65.24-105.01,51.16-28.72-13.46-24.63-53.76-63.28-69.34-16.41-6.61-24.51-2.32-34.33-12.12-17.2-17.16-12.56-50.45-10.77-63.28,3.88-27.83,13.21-32.87,8.75-45.1-8.67-23.79-49.13-18.88-52.51-35.68-3.07-15.29,26.26-44.28,53.85-39.72,42.7,7.07,33.04,48.57,36.01,63.17Z"/>
    <path class="cls-57" d="M2293.79,923.57c.51,0,.96-.34,1.09-.86,5.47-22.7,2.99-41.31-7.38-55.32-17.2-23.26-50.62-25.56-50.95-25.58-.53-.09-1.14,.43-1.18,1.05-.04,.62,.43,1.15,1.05,1.18,.33,.02,32.73,2.27,49.3,24.69,9.94,13.46,12.29,31.44,6.99,53.46-.14,.6,.22,1.2,.83,1.35,.09,.02,.18,.03,.26,.03Z"/>
    <path class="cls-57" d="M2184.34,944.35s.09,0,.14-.02c.3-.08,.48-.38,.4-.68-5.33-20.43-14.67-34.62-27.77-42.18-9.53-5.5-18.45-6.01-26.33-6.46-7.59-.44-14.15-.81-19.42-5.51-10.91-9.7-10.28-33.02,1.88-69.32,.1-.29-.06-.61-.35-.71-.29-.1-.61,.06-.71,.35-12.31,36.76-12.83,60.48-1.56,70.51,5.57,4.95,12.3,5.34,20.1,5.79,7.75,.45,16.53,.95,25.83,6.31,12.83,7.4,22,21.36,27.24,41.49,.07,.25,.29,.42,.54,.42Z"/>
    <path class="cls-57" d="M2123.45,772.38c.06,0,.12,0,.18-.03,.29-.1,.45-.42,.35-.71-4.23-12.59-16.43-10.72-29.35-8.74-8.18,1.26-16.63,2.55-23.81,.43-5.35-1.59-8.53-4.05-9.45-7.31-1.57-5.56,3.93-11.75,3.98-11.82,.21-.23,.19-.58-.04-.79-.23-.21-.58-.19-.79,.04-.24,.27-5.96,6.71-4.23,12.86,1.03,3.66,4.47,6.38,10.21,8.08,7.42,2.2,16,.88,24.3-.39,12.97-1.99,24.19-3.72,28.12,7.99,.08,.23,.3,.38,.53,.38Z"/>
  </g>
  <g>
    <g>
      <path class="cls-62" d="M269,1041.03c-8.25,8.81-20.4,16.42-28.95,21.17,12.77,15.78,30.05,31.59,52.92,47.06l6.55,14.69,20.97-25.14s-37.64-18.73-51.49-57.78Z"/>
      <path class="cls-71" d="M381.25,1517.82c0-.45-.02-.9-.14-1.36-6.79-26.93-40.51-43.71-40.51-43.71l-13.36,1.05c-7.68,23.74-6.7,38.3-5.46,44.78,.03,.18,.09,.35,.14,.53,11.02,.98,33.71,1.63,59.34-1.29Z"/>
      <path class="cls-80" d="M321.91,1519.11c.6,2.17,2.19,3.85,4.24,4.28,15.68,3.3,40.6,.64,51.06-.72,2.31-.3,4-2.44,4.03-4.85-25.63,2.92-48.31,2.27-59.34,1.29Z"/>
      <path class="cls-69" d="M321.86,1453.89l5.66,27.24c.41,2,1.95,3.49,3.81,3.67,2.27,.21,5.51,.34,8.77-.14,2.92-.43,4.95-3.4,4.43-6.58l-3.93-24.19h-18.73Z"/>
      <path class="cls-63" d="M439.11,1518.83c-14.76-.41-22.39-2.15-26.34-3.76,0,1.47,0,2.96,.05,4.51,.05,1.65,1.27,2.97,2.78,2.96l81.02-.52c2.59-.02,4.1-3.02,2.98-5.39-10.62,.88-37.68,2.84-60.49,2.2Z"/>
      <path class="cls-87" d="M499.61,1516.63c-.1-.21-.18-.42-.32-.61-7.16-10-25.38-29.91-61.39-38.54l-17.28-.55s-7.69,13.37-7.84,38.14c3.95,1.61,11.58,3.35,26.34,3.76,22.81,.64,49.87-1.33,60.49-2.2Z"/>
      <path class="cls-74" d="M417.41,1450.75c.19,1.29,2.56,20.86,3.48,28.45,.22,1.8,1.52,3.2,3.17,3.4,2.94,.35,7.7,.67,11.87-.18,2.25-.46,3.87-2.62,3.87-5.13v-30.72l-22.39,4.19Z"/>
      <path class="cls-48" d="M403.55,1093.57s41.67,158.36,40.92,357.63c-.01,3.63-2.56,6.77-6.12,7.52-5.24,1.1-12.94,2.41-19.32,2.23-3.4-.1-6.25-2.62-6.82-5.98-5.84-34.26-39.37-227.29-58.48-258.62,0,0-12.57,171.91-8.55,261.1,.1,2.22-1.52,4.14-3.73,4.4-3.35,.39-8.7,.68-15.51-.04-2.59-.27-4.67-2.23-5.04-4.8-4.16-29-28.12-201.61-27.1-325.94,.06-7.01,18.54-37.5,18.54-37.5h91.2Z"/>
      <path class="cls-77" d="M461.5,901.92c-6.76-8.48-12.69-17.56-17.64-26.93-6.92-13.08-.56,8.46-2.45-6.3-51.83-37.4-129.88-18.47-160.07-14.67-9.9,1.25-18.95,6.13-25.48,13.68-25.87,29.94-82.64,111.9-15.82,194.5,8.55-4.75,20.7-12.36,28.95-21.17-7.39-20.84-8-47.47,7.49-80.12,.53,2.59,1.18,5.15,1.98,7.67,21.35,67.65,22.49,123.94,22.44,136.91,0,1.76,1.05,3.35,2.69,4,28.1,11.26,82.2,4.56,100.36,1.85,3.33-.5,5.57-3.6,5.11-6.93-8.91-64.57,36.83-170.79,48.91-197.39,.87-1.91,2.07-3.64,3.52-5.11Z"/>
      <path class="cls-78" d="M329.92,799.65l-5.42,55.34s31.13,9.38,53.77-6.6l-15.92-50.29-32.44,1.56Z"/>
      <g>
        <path class="cls-60" d="M366.04,736.58c.75,.71,31.62,61.33,31.62,61.33l-34.99,16.89-37.8-53.11s28.62-36.91,41.17-25.11Z"/>
        <path class="cls-54" d="M340.35,763.16c-.62,1.61-.47,3.42,.42,4.9l17.45,29.09c.26,.44,.58,.84,.96,1.19,2.08,1.93,9.19,7.56,14.68-.1,4.68-6.53,9.08-12.46,13.79-14.91,2.75-1.43,6.13-.29,7.53,2.48,2.87,5.7,8.44,17.32,11.94,28.33,.88,2.76-.55,5.72-3.23,6.81-7.08,2.87-21.09,8.06-33.51,9.78-2.04,.28-4.06-.58-5.28-2.24-5.35-7.32-20.41-27.79-25.56-32.91-4.78-4.76-13.6-2.96-17.57-1.82-1.51,.43-3.11,.22-4.46-.59-4.03-2.43-11.07-8.47-4.63-18.71,1.6-2.55,.78-5.94-1.73-7.59-4.5-2.96-9.38-8.52-4.73-17.52,4.71-9.11,13.12-9.93,18.85-9.23,2.53,.31,5.11-1.02,6.08-3.38,.43-1.05,1.29-1.95,2.88-2.27,3-.61,4.97-3.36,4.38-6.36-1.01-5.16-.25-11.85,7.98-16.38,15.1-8.3,28.32,5.22,31.68,16.64,3.36,11.42-13.52,19.49-24.13,20.83-7.8,.99-12.08,9.5-13.8,13.95Z"/>
        <path class="cls-75" d="M346.09,806.26s-6.71-19.64-15.31-18.92c-8.59,.72-15.36,9.28-4.71,18.9,13.25,11.97,20.01,.02,20.01,.02Z"/>
      </g>
      <path class="cls-67" d="M273.66,955.85c-11.33-31-7.22-68.43-7.17-68.8l3.12,.36c-.04,.37-4.06,37.08,7.01,67.37l-2.95,1.08Z"/>
      <path class="cls-53" d="M352.2,1192.32c-.7,0-1.34-.47-1.52-1.18-3.46-13.33-29.33-27.97-29.59-28.12-.76-.42-1.03-1.38-.6-2.14,.42-.76,1.38-1.03,2.14-.6,1.11,.62,27.31,15.45,31.1,30.07,.22,.84-.29,1.7-1.13,1.91-.13,.03-.27,.05-.4,.05Z"/>
      <g>
        <path class="cls-50" d="M566.72,919.32c-58.62,8.8-96.83-28.19-125.3-50.63-37.59-29.62-66.84-15.21-66.84-15.21l40.09,76.51c59.87,56.44,121.25,43.91,159.94,25.62,.6-14.78-3.35-27.14-7.89-36.28Z"/>
        <path class="cls-58" d="M649.11,884.35l-19.44,10.46c-23.31,14.2-44.18,21.7-62.95,24.51,4.53,9.14,8.48,21.51,7.89,36.28,24.63-11.64,40.08-25.62,40.08-25.62,44.04-26.26,34.43-45.64,34.43-45.64Z"/>
      </g>
      <path class="cls-76" d="M706.38,911.74c-1.26-4.17-4.34-7.55-8.38-9.17l-39.45-15.87s-.6-5.06,8.34-8.5c8.93-3.44,6.84-13.44,6.84-13.44,0,0-12.2,5.57-30.07,14.4-10.22,5.05-15.95,13.96-18.99,20.67l10.16,13.36c24.32,7.31,48.92,8.7,73.74,5.8l-2.18-7.25Z"/>
    </g>
    <path class="cls-57" d="M372.36,735.13c-.07,0-.13,0-.2-.02-.47-.11-.77-.58-.66-1.05,.11-.49,2.57-12.09-10.6-18.13-.44-.2-.63-.72-.43-1.16s.72-.64,1.16-.43c14.5,6.64,11.61,19.98,11.58,20.11-.09,.4-.45,.68-.85,.68Z"/>
  </g>
  <g>
    <g>
      <path class="cls-8" d="M525.04,1392.13c-2.65-2.38-6.85-5.88-10.73-7.98-.99-.53-2.21-.28-2.9,.61-4.04,5.23-17.53,23.34-20.54,35.81-.25,1.03,.28,2.09,1.22,2.58,3.48,1.81,12.65,3.77,25.72-14.42l7.86-11.1c1.22-1.73,.95-4.09-.63-5.5Z"/>
      <path class="cls-7" d="M604.73,1351.47s-4.39,59.32-28.56,79.09c-21.16,17.31-54.11-14.21-61.98-22.33-1.15-1.18-1.7-2.86-1.37-4.48,.79-3.9,2.68-6.93,6-8.83,2.34-1.34,5.28-1.03,7.25,.8,6.56,6.06,23.75,20.78,32.52,17.27,10.98-4.39,17.58-61.52,17.58-61.52h28.56Z"/>
      <g>
        <path class="cls-13" d="M547.61,1171.32s-32.95-15.38-51.06-99.68l9.01-4.62s34.98,68.84,53.03,84.53c18.05,15.69-10.99,19.77-10.99,19.77Z"/>
        <path class="cls-33" d="M503.52,1077.17l-6.97-5.53s-9.51-9.23-12.85-17.08c-3.34-7.85,6.46-14.92,10.16-16.59,3.7-1.67,5.72,1.85,4.99,9.73,0,0,8.42,9.79,7.21,24.07l-2.54,5.4Z"/>
      </g>
      <g>
        <path class="cls-32" d="M694.92,1171.31s37.26-58.05,43.99-106.26l-9.01-4.62s-37.26,78.03-55.32,93.72c-18.05,15.69,20.34,17.16,20.34,17.16Z"/>
        <path class="cls-5" d="M731.94,1070.58l6.97-5.53s9.51-9.23,12.85-17.08c3.34-7.85-6.46-14.92-10.16-16.59-3.7-1.67-5.72,1.84-4.99,9.73,0,0-8.42,9.79-7.21,24.07l2.54,5.4Z"/>
      </g>
      <path class="cls-17" d="M616.23,1504.04s-2.62,9.72-2.44,16.9c.03,1.13,.87,2.07,1.98,2.22,6.56,.9,28.96,3.59,41.26,0,.99-.29,1.67-1.21,1.64-2.24-.11-3.86-2.83-12.93-25.31-15.24l-17.14-1.64Z"/>
      <path class="cls-30" d="M654.9,1355.36c2.77,1.81-18.1,148.34-23.16,149.41,0,0-5.78,5.37-14.71-.75,5.15-47.76,8.29-96.2,5.51-145.7l32.35-2.95Z"/>
      <path class="cls-23" d="M581.71,1266.43s68.05,3.11,84.26,8.8c0,0-2,55.33-8.65,89.33-.26,1.32-1.25,2.36-2.56,2.67-4.37,1.01-15.36,2.46-32.78-2.42-1.55-.43-2.58-1.9-2.47-3.51l1.8-22.04c.1-1.48-1.02-2.76-2.5-2.86l-1.82-.28c-1.54-.11-2.85,1.11-2.87,2.65l-3.44,22.35c-.01,1.45-.94,2.73-2.31,3.19-5.11,1.73-18.43,4.97-35.98-.38-1.41-.43-2.4-1.74-2.41-3.21-.18-27.13,4.69-59.57,11.73-94.29Z"/>
      <path class="cls-16" d="M607.22,1271.2s-8.6,23.92-29.36,25.57l4.59-27.27s16.08-.12,24.77,1.7Z"/>
      <path class="cls-18" d="M671.86,1094.96s-2.62-7.39,4.06-8.71c6.68-1.32,.31,18.3,.31,18.3l-4.36-9.6Z"/>
      <path class="cls-4" d="M549.81,1140.56s30.76,19.77,68.11,17.58c31.15-1.83,50.07-9.78,60.59-18.74,3.76-3.2,9.11-3.73,13.27-1.05,4.55,2.93,10.6,7.48,16.96,14.12,1.6,1.67,1.92,4.22,.71,6.19-9.07,14.66-18.75,24.9-29,30.86-3.47,3.83-5.33,8.84-5.2,14.01l1.89,71.99c.05,2-1.33,3.73-3.3,4.11-13.65,2.59-65.47,11.61-97.67,5.93v-77.65c0-5.77-3.19-11.02-8.24-13.83-6.76-3.76-16.84-11.11-26.91-24.96l8.79-28.56Z"/>
      <path class="cls-9" d="M603.16,1123.96l-3.38,37.07s19.57,11.43,36.4,1.44l-2.99-32.38-30.03-6.13Z"/>
      <path class="cls-29" d="M675.43,1097.6s8.57-14.68-2.35-22.4c0,0,5.86-12.92-5.22-22.27,0,0-17.65-41.3-54.69-12.33,0,0-31.9-9.49-42.16,30.18,0,0-10.61,5.95-5.75,20.77,0,0-1.19,54.97,46.96,36.44l63.21-30.39Z"/>
      <path class="cls-14" d="M659.58,1066.9s40.81,61.5-1.35,80.34c-39.8,17.78-56.57-23.06-56.57-23.06,0,0-17.5-18.13-11.62-32.09,5.88-13.96,59.6-32.83,69.54-25.19Z"/>
      <path class="cls-28" d="M597.68,1114.49s39.95-12.64,36.53-36.24c0,0,6.92,.69,9.04-7.46,0,0,19.6,17.63,24.77,5.3,0,0-3.43-30.53-27.38-20.64-23.95,9.89-45.82,19.96-52.23,27-6.41,7.04-11.73,24.09,9.28,32.03Z"/>
      <path class="cls-26" d="M606.89,1129.66l-7.1-19.51s-13.71-6.3-11.91,4.31c1.81,10.61,14.13,16.47,19,15.2Z"/>
    </g>
    <path class="cls-57" d="M668.02,1070.12c-.48,0-.88-.39-.88-.88,0-1.26,.11-2.46,.22-3.62,.48-5.18,.87-9.28-9.41-14.05-.19-.09-.34-.24-.43-.44-7.54-16.97-23.54-12.91-24.22-12.72-.47,.13-.95-.15-1.07-.62-.13-.47,.15-.95,.62-1.07,.18-.05,17.93-4.61,26.14,13.4,11.09,5.25,10.62,10.31,10.12,15.66-.1,1.12-.21,2.28-.21,3.45,0,.48-.39,.88-.88,.88Z"/>
  </g>
  <g>
    <g>
      <path class="cls-65" d="M1812.88,1139.87s29.61,79.8,74.66,70c0,0,4.64,27.15-2.94,30.35,0,0-67.56,1.96-74.28-90.83l2.56-9.53Z"/>
      <g>
        <path class="cls-66" d="M1814.15,1158.57c-.13,1.38,5.01,2.34,6.65-3.56-.45-2.56-1.25-13.77-3.21-15.51-10.45-9.28-29.09-19.71-29.09-19.71-2.08,3.18,.65,5.28,.65,5.28l9.31,6.28c-.97,3.22-2.39,6.06-2.55,9.73-.12,2.78,.91,5.5,2.75,7.61,1.85,2.12,4.34,4.85,6.59,6.92,4.25,3.93,8.91,2.96,8.91,2.96Z"/>
        <path class="cls-47" d="M1808.73,1154.15c-1.81-4.4-5.01-11.48-6.42-12.96-1.22-1.28-1.79-2.47-1.71-3.64,.06-.99,.58-1.89,1.55-2.68l.6-.49,9.15,4.89,3.6,5.63-1.97,1.26-3.27-5.12-7.15-3.82c-.17,.24-.18,.4-.18,.48-.03,.46,.35,1.13,1.07,1.88,2.17,2.27,6.42,12.53,6.9,13.69l-2.16,.89Z"/>
      </g>
      <path class="cls-31" d="M1887.1,1106.52s14.3-12.92-4.09-26.92c-17.28-13.16-29.9,4.5-24.18,15.86,.41,.81-.05,1.78-.93,1.97-1.51,.33-2.81,1.83-.43,7.14,.2,.46,.14,.99-.16,1.39-2.12,2.84-9.18,14.22,12.12,15.96,.38,.03,.77-.1,1.05-.36l16.62-15.05Z"/>
      <path class="cls-1" d="M1962.23,1125.48s1.37-16.48,10.19-21.86c8.82-5.37,25.95-9.94,33.12,7.98,3.42,8.55,2.29,12.62,.17,14.53-1.93,1.75-2.15,4.46-.87,6.74,1.45,2.59,1.65,5.8-2.73,8.72-1.29,.86-2.16,2.13-2.44,3.56-1.14,5.98-7.26,20.31-39.94,4.64l2.5-24.31Z"/>
      <path class="cls-11" d="M1924.44,1095.85c6.43-2.76,20.05-5.57,30.65,12.97,.74,1.29,1.81,2.36,3.11,3.08,6.31,3.48,24.59,16.13,7.95,38.97-.76,1.04-1.26,2.26-1.45,3.53-.56,3.87-2.4,12.44-7.93,14.56-1.65,.63-3.04,1.79-3.96,3.31-3.72,6.12-14.33,19.01-32.17,5.55-.91-.69-1.96-1.17-3.07-1.42l-24.64-5.43c-1.31-.29-2.67-.23-3.96,.14-3.01,.88-9.1,1.65-11.37-5.44-.46-1.44-1.32-2.73-2.47-3.71-4.13-3.51-12.9-13.04-6.27-26.39,.74-1.49,1.02-3.18,.76-4.82-.78-5-1.18-16.11,9.19-20.9,1.56-.72,2.86-1.89,3.65-3.42,3.46-6.66,14.74-23.73,34.62-11.21,2.21,1.39,4.95,1.66,7.35,.63Z"/>
      <path class="cls-6" d="M1890.97,1487.47l3.59,4.14-2.46,9c-.65,2.36-2.59,4.14-4.99,4.58-8.01,1.47-26.17,4.12-35.52,.1,0,0-2.91-19.47,29.29-13.67l10.09-4.14Z"/>
      <path class="cls-15" d="M1947.12,1497.81l1.91,4.69-.77,16.88c-.11,2.37-2.02,4.36-4.6,4.76-3.52,.54-8.64,1.09-13.46,.72-3.77-.29-6.13-3.83-4.66-7l5.68-12.17c.85-1.82,2.4-3.22,4.3-3.87l11.6-4Z"/>
      <path class="cls-21" d="M1930.77,1168.8l3.67,36.31s-19.74,6.69-32.74-.86l3.51-36.46,25.56,1.01Z"/>
      <path class="cls-25" d="M1962.43,1367.6s-9.37,104.45-15.56,136.41c0,0-4.63,3.37-11.56-.98l-8.41-139.39,35.52,3.96Z"/>
      <path class="cls-22" d="M1920.8,1373.87l-25.67,116.97s-6.98,7.24-16.06,0l4.42-122.97,37.3,5.99Z"/>
      <path class="cls-10" d="M1953.27,1207.85l6.42,.72c12.43,13.33,35.24,104.94,43.47,124.42l33.47-5.47c1.31-.27,2.38,1.03,1.88,2.27-1.49,3.63-7.06,14.11-28.79,14.11-10.15,0,5.69,7.88-.38,10.58,0,0-13.34-4.8-13.36-13.25,0,0-38.24-87.11-46.11-96.28-7.86-9.17,3.39-37.11,3.39-37.11Z"/>
      <path class="cls-24" d="M1959.69,1208.57s-34.02-12.6-76.49,.44c0,0-4.76,32.15-2.31,47.45l73.18,2.65,5.62-50.55Z"/>
      <path class="cls-20" d="M1881.89,1266.51s-23.39,75.08-26.86,125.1c-.18,2.57,1.76,4.79,4.33,4.98,4.87,.35,13.45,1.55,25.11,5.43,18.91,6.3,34.56,4.22,48.7,.16,11.09-3.19,38.84-5.97,50.26-7.02,2.72-.25,4.64-2.77,4.16-5.46-3.32-18.51-15.94-84.2-35.08-128.85l-70.63,5.67Z"/>
      <path class="cls-19" d="M1880.66,1254.73l1.24,11.78s22.5,.09,72.22-1.59l.26-8.52s-55.08,1.08-73.72-1.67Z"/>
      <path class="cls-27" d="M1880.82,1133.6c-5.65,21.83-4,46.92,21.69,52.55,17.77,3.89,36.45-14.21,42.1-36.05,5.65-21.83-4.02-38.46-21.64-43.02-17.61-4.56-36.5,4.68-42.15,26.51Z"/>
      <path class="cls-3" d="M1882.75,1140.34s-.84-13.2-7.43-9.13c-6.58,4.07,2.54,19.89,6.61,20.82,4.07,.93,.81-11.69,.81-11.69Z"/>
      <path class="cls-12" d="M1939.08,1155.56s1.97-10.07,9.1-5.42c7.13,4.65-6.48,21.11-14.87,17.45l5.76-12.03Z"/>
      <path class="cls-2" d="M1949.64,1147.56s-20.43,22.11-31.04-23.77c0,0-10.59,13.71-15.42,1.58,0,0-21.08,7.23-23.41-1.64-2.33-8.87,28.5-32.91,53.29-15.66,24.79,17.26,16.58,39.49,16.58,39.49Z"/>
    </g>
    <path class="cls-82" d="M1873.44,1124.04c-.05,0-.1,0-.16-.01-.48-.09-.79-.54-.71-1.02,1.18-6.5,3.17-8.04,9.07-12.62,1.08-.84,2.3-1.78,3.68-2.89,1.9-8.22,13.79-9.86,14.31-9.93,.47-.06,.92,.28,.98,.76,.06,.48-.27,.92-.76,.98-.11,.01-11.46,1.58-12.88,8.85-.04,.2-.15,.38-.31,.51-1.49,1.2-2.79,2.21-3.94,3.1-5.8,4.5-7.35,5.71-8.42,11.55-.08,.42-.45,.72-.86,.72Z"/>
  </g>
  <path class="cls-36" d="M864.8,702.01c-1.89,0-3.45-1.5-3.5-3.4-.11-3.87-.28-7.76-.51-11.55-.12-1.93,1.36-3.59,3.29-3.71,1.9-.11,3.59,1.36,3.71,3.29,.23,3.87,.4,7.83,.52,11.77,.05,1.93-1.47,3.55-3.4,3.6-.03,0-.07,0-.1,0Zm-1.4-23.3c-1.79,0-3.32-1.36-3.48-3.18-.35-3.83-.78-7.69-1.25-11.49-.24-1.92,1.12-3.67,3.04-3.91,1.92-.24,3.67,1.12,3.91,3.04,.49,3.87,.92,7.81,1.28,11.72,.18,1.93-1.24,3.63-3.17,3.81-.11,.01-.22,.01-.33,.01Zm-2.92-23.15c-1.69,0-3.18-1.23-3.45-2.95-.61-3.79-1.29-7.62-2.03-11.37-.37-1.9,.86-3.74,2.76-4.11,1.9-.38,3.74,.86,4.11,2.76,.75,3.83,1.45,7.74,2.07,11.61,.31,1.91-.99,3.71-2.9,4.02-.19,.03-.38,.04-.56,.04Zm-4.5-22.9c-1.59,0-3.03-1.09-3.41-2.71-.87-3.75-1.83-7.52-2.82-11.2-.51-1.87,.6-3.79,2.46-4.3,1.88-.51,3.79,.6,4.3,2.46,1.02,3.76,1.99,7.61,2.89,11.44,.44,1.88-.73,3.77-2.62,4.21-.27,.06-.53,.09-.8,.09Zm-6.11-22.53c-1.49,0-2.88-.96-3.35-2.47-1.14-3.67-2.36-7.36-3.62-10.96-.64-1.83,.32-3.83,2.15-4.47,1.83-.64,3.83,.32,4.47,2.15,1.29,3.68,2.54,7.45,3.7,11.2,.57,1.85-.46,3.81-2.31,4.39-.35,.11-.7,.16-1.04,.16Zm-7.73-22.02c-1.4,0-2.72-.84-3.26-2.22-1.4-3.57-2.89-7.16-4.42-10.67-.77-1.77,.04-3.84,1.81-4.61,1.78-.77,3.84,.04,4.61,1.81,1.56,3.59,3.09,7.26,4.52,10.91,.71,1.8-.18,3.83-1.98,4.54-.42,.17-.85,.24-1.28,.24Zm-9.33-21.4c-1.3,0-2.56-.73-3.16-1.99-1.65-3.44-3.4-6.91-5.19-10.31-.9-1.71-.25-3.83,1.47-4.73,1.71-.9,3.83-.25,4.73,1.47,1.83,3.48,3.62,7.02,5.31,10.55,.84,1.75,.1,3.84-1.64,4.68-.49,.23-1.01,.35-1.51,.35Zm-10.88-20.66c-1.21,0-2.4-.63-3.04-1.76-1.9-3.31-3.9-6.65-5.93-9.91-1.02-1.64-.52-3.8,1.12-4.83,1.64-1.02,3.8-.52,4.83,1.12,2.08,3.34,4.12,6.75,6.06,10.13,.96,1.68,.38,3.82-1.29,4.78-.55,.32-1.15,.47-1.74,.47Zm-12.35-19.82c-1.13,0-2.23-.54-2.91-1.54-2.14-3.18-4.38-6.36-6.64-9.46-1.14-1.56-.79-3.76,.77-4.9,1.57-1.14,3.76-.79,4.9,.77,2.31,3.17,4.59,6.42,6.78,9.67,1.08,1.6,.66,3.78-.94,4.86-.6,.41-1.28,.6-1.96,.6Zm-13.75-18.89c-1.04,0-2.07-.46-2.76-1.34-2.36-3.01-4.81-6.03-7.29-8.97-1.25-1.48-1.06-3.69,.42-4.94,1.48-1.25,3.69-1.05,4.94,.42,2.53,3,5.03,6.09,7.44,9.17,1.19,1.52,.93,3.73-.6,4.92-.64,.5-1.4,.75-2.16,.75Zm-15.05-17.88c-.96,0-1.91-.39-2.6-1.16-2.56-2.83-5.21-5.68-7.89-8.45-1.35-1.39-1.31-3.61,.08-4.95,1.39-1.35,3.61-1.31,4.95,.08,2.74,2.83,5.45,5.74,8.06,8.63,1.3,1.44,1.18,3.65-.26,4.95-.67,.6-1.51,.9-2.35,.9Zm-16.25-16.8c-.88,0-1.75-.33-2.44-.98-2.77-2.67-5.61-5.33-8.46-7.9-1.44-1.3-1.55-3.51-.25-4.95,1.3-1.44,3.51-1.55,4.95-.25,2.91,2.62,5.81,5.33,8.63,8.06,1.39,1.34,1.43,3.56,.08,4.95-.69,.71-1.6,1.07-2.52,1.07Zm-17.36-15.67c-.8,0-1.6-.27-2.26-.82-2.94-2.48-5.96-4.93-8.98-7.3-1.52-1.19-1.79-3.4-.59-4.92,1.2-1.52,3.4-1.79,4.92-.59,3.08,2.42,6.17,4.93,9.17,7.45,1.48,1.25,1.67,3.46,.42,4.94-.69,.82-1.68,1.25-2.68,1.25Zm-18.41-14.43c-.72,0-1.44-.22-2.06-.67-3.14-2.29-6.33-4.52-9.48-6.63-1.61-1.08-2.03-3.26-.96-4.86,1.08-1.6,3.25-2.03,4.86-.96,3.22,2.16,6.48,4.45,9.7,6.79,1.56,1.14,1.91,3.33,.77,4.9-.69,.94-1.75,1.44-2.84,1.44Zm-19.45-13.03c-.62,0-1.25-.16-1.82-.51-6.2-3.78-9.93-5.65-9.96-5.66-1.73-.86-2.43-2.97-1.57-4.7,.86-1.73,2.97-2.44,4.7-1.57,.16,.08,4,2,10.48,5.95,1.65,1.01,2.18,3.16,1.17,4.82-.66,1.08-1.81,1.68-3,1.68Z"/>
  <path class="cls-36" d="M1651.56,726.92c-.43,0-.87-.08-1.29-.25-1.8-.72-2.68-2.75-1.96-4.55,1.45-3.64,3-7.31,4.6-10.89,.79-1.77,2.86-2.56,4.63-1.77,1.77,.79,2.56,2.86,1.77,4.63-1.56,3.5-3.07,7.07-4.48,10.62-.55,1.37-1.86,2.21-3.26,2.21Zm9.52-21.32c-.52,0-1.06-.12-1.56-.37-1.73-.86-2.44-2.97-1.58-4.7,1.75-3.51,3.59-7.03,5.48-10.46,.93-1.69,3.07-2.31,4.76-1.38s2.31,3.06,1.38,4.76c-1.85,3.35-3.65,6.79-5.35,10.21-.61,1.23-1.85,1.94-3.14,1.94Zm11.26-20.44c-.62,0-1.25-.16-1.81-.51-1.66-1-2.18-3.16-1.18-4.81,2.03-3.35,4.16-6.71,6.33-9.97,1.07-1.61,3.25-2.05,4.86-.98,1.61,1.07,2.05,3.25,.98,4.86-2.12,3.19-4.2,6.46-6.18,9.73-.66,1.09-1.81,1.69-3,1.69Zm12.91-19.44c-.71,0-1.43-.22-2.05-.67-1.57-1.14-1.92-3.33-.78-4.89,2.29-3.16,4.69-6.33,7.12-9.43,1.2-1.52,3.4-1.78,4.92-.59,1.52,1.2,1.78,3.4,.59,4.92-2.38,3.02-4.72,6.12-6.95,9.2-.69,.95-1.76,1.45-2.84,1.45Zm14.44-18.34c-.8,0-1.61-.27-2.27-.84-1.47-1.26-1.65-3.47-.39-4.94,2.53-2.97,5.17-5.94,7.83-8.84,1.31-1.42,3.53-1.51,4.95-.2,1.42,1.31,1.51,3.53,.2,4.95-2.6,2.83-5.18,5.73-7.65,8.64-.69,.81-1.68,1.23-2.67,1.23Zm15.81-17.18c-.89,0-1.78-.34-2.47-1.02-1.37-1.36-1.38-3.58-.02-4.95,2.74-2.76,5.59-5.53,8.46-8.23,1.41-1.32,3.63-1.25,4.95,.16,1.32,1.41,1.25,3.63-.16,4.95-2.81,2.64-5.6,5.35-8.28,8.05-.68,.69-1.59,1.04-2.49,1.04Zm17.03-15.98c-.98,0-1.95-.4-2.64-1.2-1.27-1.46-1.12-3.67,.33-4.94,2.94-2.57,5.97-5.13,9.01-7.61,1.5-1.23,3.71-1,4.93,.5,1.22,1.5,1,3.71-.5,4.93-2.98,2.44-5.96,4.95-8.83,7.46-.66,.58-1.49,.87-2.31,.87Zm18.09-14.78c-1.05,0-2.1-.47-2.79-1.38-1.17-1.54-.88-3.74,.66-4.91,3.09-2.36,6.28-4.72,9.48-7.01,1.58-1.13,3.76-.76,4.89,.81,1.13,1.57,.76,3.76-.81,4.89-3.14,2.25-6.27,4.56-9.31,6.88-.64,.48-1.38,.72-2.13,.72Zm19-13.6c-1.13,0-2.24-.54-2.91-1.55-1.08-1.61-.65-3.78,.96-4.86,3.21-2.15,6.53-4.32,9.88-6.42,1.64-1.03,3.8-.54,4.83,1.1,1.03,1.64,.54,3.8-1.1,4.83-3.29,2.07-6.56,4.19-9.71,6.31-.6,.4-1.28,.59-1.95,.59Zm19.78-12.45c-1.2,0-2.37-.61-3.02-1.72-.98-1.67-.43-3.82,1.23-4.8,3.34-1.97,6.78-3.94,10.22-5.86,1.69-.94,3.82-.33,4.76,1.36,.94,1.69,.33,3.82-1.36,4.76-3.39,1.88-6.77,3.82-10.06,5.76-.56,.33-1.17,.49-1.78,.49Zm20.43-11.35c-1.26,0-2.48-.69-3.11-1.88-.9-1.72-.23-3.83,1.49-4.73,3.51-1.83,7.01-3.6,10.51-5.32,1.74-.85,3.84-.13,4.69,1.6,.85,1.74,.13,3.84-1.6,4.69-3.44,1.69-6.9,3.43-10.35,5.24-.52,.27-1.07,.4-1.62,.4Zm20.99-10.29c-1.33,0-2.59-.76-3.18-2.04-.81-1.76-.04-3.84,1.72-4.65,3.6-1.66,7.19-3.26,10.75-4.8,1.78-.77,3.84,.05,4.61,1.83,.77,1.78-.05,3.84-1.83,4.61-3.51,1.52-7.05,3.09-10.6,4.73-.47,.22-.97,.32-1.46,.32Zm21.46-9.28c-1.38,0-2.7-.83-3.25-2.19-.73-1.79,.14-3.84,1.93-4.56,3.69-1.49,7.34-2.93,10.95-4.3,1.81-.69,3.83,.22,4.52,2.03,.69,1.81-.22,3.83-2.03,4.52-3.57,1.36-7.17,2.77-10.81,4.25-.43,.17-.88,.26-1.32,.26Zm21.86-8.31c-1.44,0-2.79-.9-3.3-2.33-.65-1.82,.3-3.83,2.13-4.47,3.77-1.34,7.48-2.61,11.13-3.83,1.84-.61,3.82,.39,4.43,2.22,.61,1.84-.38,3.82-2.22,4.43-3.6,1.2-7.27,2.46-10.99,3.78-.39,.14-.78,.2-1.17,.2Zm22.2-7.37c-1.5,0-2.88-.97-3.35-2.47-.57-1.85,.46-3.81,2.31-4.38,3.85-1.19,7.62-2.31,11.28-3.36,1.86-.54,3.8,.54,4.33,2.4,.53,1.86-.54,3.8-2.4,4.33-3.62,1.04-7.34,2.14-11.14,3.32-.34,.11-.69,.16-1.04,.16Zm22.49-6.45c-1.55,0-2.97-1.04-3.39-2.61-.5-1.87,.62-3.79,2.49-4.29,3.96-1.05,7.77-2.01,11.42-2.9,1.89-.45,3.78,.7,4.23,2.58,.46,1.88-.7,3.78-2.58,4.23-3.6,.87-7.36,1.82-11.27,2.86-.3,.08-.6,.12-.9,.12Zm22.75-5.52c-1.61,0-3.06-1.12-3.42-2.75-.42-1.89,.78-3.76,2.67-4.17,4.17-.92,8.03-1.71,11.55-2.4,1.9-.37,3.74,.87,4.11,2.77,.37,1.9-.87,3.74-2.77,4.11-3.47,.68-7.28,1.47-11.39,2.37-.25,.06-.51,.08-.76,.08Zm23.01-4.49c-1.68,0-3.16-1.21-3.45-2.92-.32-1.91,.96-3.72,2.87-4.04,7.46-1.26,11.65-1.75,11.83-1.77,1.92-.23,3.66,1.16,3.88,3.08,.22,1.92-1.15,3.66-3.08,3.88-.04,0-4.21,.49-11.47,1.72-.2,.03-.39,.05-.59,.05Z"/>
  <path class="cls-36" d="M1206.2,702.01s-.07,0-.1,0c-1.93-.05-3.46-1.67-3.4-3.6,.11-3.94,.29-7.9,.52-11.77,.12-1.93,1.78-3.39,3.71-3.29,1.93,.12,3.4,1.77,3.29,3.71-.23,3.8-.4,7.69-.51,11.55-.05,1.9-1.61,3.4-3.5,3.4Zm1.4-23.3c-.11,0-.22,0-.33-.01-1.93-.18-3.35-1.88-3.17-3.81,.36-3.91,.79-7.85,1.28-11.72,.24-1.92,2.01-3.28,3.91-3.04,1.92,.24,3.28,1.99,3.04,3.91-.48,3.79-.9,7.66-1.25,11.49-.17,1.82-1.7,3.18-3.48,3.18Zm2.92-23.15c-.18,0-.37-.01-.56-.04-1.91-.31-3.21-2.1-2.9-4.02,.62-3.87,1.32-7.78,2.07-11.61,.37-1.9,2.21-3.14,4.11-2.76,1.9,.37,3.14,2.21,2.76,4.11-.74,3.75-1.42,7.58-2.03,11.37-.28,1.72-1.76,2.95-3.45,2.95Zm4.5-22.9c-.26,0-.53-.03-.8-.09-1.89-.44-3.06-2.32-2.62-4.21,.89-3.83,1.87-7.68,2.89-11.44,.51-1.87,2.44-2.96,4.3-2.46,1.87,.51,2.97,2.43,2.46,4.3-1,3.68-1.95,7.45-2.82,11.2-.38,1.62-1.82,2.71-3.41,2.71Zm6.11-22.53c-.34,0-.69-.05-1.04-.16-1.85-.57-2.88-2.54-2.31-4.39,1.17-3.76,2.41-7.52,3.7-11.2,.64-1.83,2.64-2.78,4.47-2.15,1.83,.64,2.79,2.64,2.15,4.47-1.26,3.6-2.48,7.29-3.62,10.96-.47,1.5-1.85,2.47-3.35,2.47Zm7.73-22.02c-.43,0-.86-.08-1.28-.24-1.8-.71-2.69-2.74-1.98-4.54,1.43-3.65,2.95-7.32,4.52-10.91,.77-1.77,2.84-2.58,4.61-1.81,1.77,.77,2.58,2.84,1.81,4.61-1.53,3.51-3.02,7.1-4.42,10.67-.54,1.38-1.86,2.22-3.26,2.22Zm9.33-21.4c-.51,0-1.03-.11-1.51-.35-1.74-.84-2.48-2.93-1.64-4.68,1.69-3.52,3.48-7.07,5.31-10.55,.9-1.71,3.02-2.37,4.73-1.47,1.71,.9,2.37,3.02,1.47,4.73-1.79,3.4-3.54,6.87-5.19,10.31-.6,1.25-1.86,1.99-3.16,1.99Zm10.88-20.66c-.59,0-1.19-.15-1.74-.47-1.68-.96-2.26-3.1-1.29-4.78,1.94-3.38,3.98-6.79,6.06-10.13,1.03-1.64,3.19-2.14,4.83-1.12,1.64,1.02,2.14,3.19,1.12,4.83-2.04,3.27-4.03,6.6-5.93,9.91-.65,1.13-1.83,1.76-3.04,1.76Zm12.35-19.82c-.67,0-1.36-.19-1.96-.6-1.6-1.08-2.03-3.26-.94-4.86,2.19-3.24,4.47-6.5,6.78-9.67,1.14-1.56,3.33-1.91,4.9-.77,1.56,1.14,1.91,3.33,.77,4.9-2.26,3.1-4.49,6.29-6.64,9.46-.68,1-1.78,1.54-2.91,1.54Zm13.75-18.89c-.76,0-1.52-.24-2.16-.75-1.52-1.19-1.79-3.4-.6-4.92,2.41-3.08,4.92-6.16,7.44-9.17,1.24-1.48,3.46-1.67,4.94-.42,1.48,1.25,1.67,3.46,.42,4.94-2.48,2.94-4.93,5.96-7.29,8.97-.69,.88-1.72,1.34-2.76,1.34Zm15.05-17.88c-.84,0-1.68-.3-2.35-.9-1.44-1.3-1.55-3.51-.26-4.95,2.61-2.89,5.32-5.8,8.06-8.63,1.34-1.39,3.56-1.43,4.95-.08,1.39,1.34,1.43,3.56,.08,4.95-2.68,2.77-5.34,5.62-7.89,8.45-.69,.77-1.64,1.16-2.6,1.16Zm16.25-16.8c-.92,0-1.83-.36-2.52-1.07-1.34-1.39-1.31-3.61,.08-4.95,2.82-2.73,5.73-5.44,8.63-8.06,1.44-1.3,3.65-1.18,4.95,.25,1.3,1.44,1.18,3.65-.25,4.95-2.85,2.57-5.69,5.23-8.46,7.9-.68,.66-1.56,.98-2.44,.98Zm17.36-15.67c-1,0-1.99-.42-2.68-1.25-1.25-1.48-1.06-3.69,.42-4.94,3-2.53,6.09-5.04,9.17-7.45,1.52-1.2,3.73-.93,4.92,.59,1.19,1.52,.93,3.73-.59,4.92-3.02,2.37-6.04,4.82-8.98,7.3-.66,.55-1.46,.82-2.26,.82Zm18.41-14.43c-1.08,0-2.15-.5-2.84-1.44-1.14-1.56-.79-3.76,.77-4.9,3.22-2.34,6.48-4.62,9.7-6.79,1.6-1.08,3.78-.65,4.86,.96,1.08,1.61,.65,3.78-.96,4.86-3.15,2.11-6.34,4.34-9.48,6.63-.62,.45-1.34,.67-2.06,.67Zm19.45-13.03c-1.18,0-2.34-.6-3-1.68-1.01-1.65-.48-3.81,1.17-4.82,6.48-3.95,10.32-5.87,10.48-5.95,1.73-.87,3.83-.16,4.7,1.57,.86,1.73,.16,3.84-1.57,4.7-.04,.02-3.76,1.89-9.96,5.66-.57,.35-1.2,.51-1.82,.51Z"/>
</svg>