<?xml version="1.0" standalone="no"?>
<!DOCTYPE svg PUBLIC "-//W3C//DTD SVG 20010904//EN"
 "http://www.w3.org/TR/2001/REC-SVG-20010904/DTD/svg10.dtd">
<svg version="1.0" xmlns="http://www.w3.org/2000/svg"
 width="1181.000000pt" height="354.000000pt" viewBox="0 0 1181.000000 354.000000"
 preserveAspectRatio="xMidYMid meet">

<g transform="translate(0.000000,354.000000) scale(0.100000,-0.100000)"
fill="#000000" stroke="none">
<path d="M1718 2700 c-131 -24 -285 -101 -400 -201 l-57 -50 -53 16 c-206 61
-456 -45 -558 -236 l-31 -59 -65 0 c-78 0 -157 -26 -279 -92 -169 -92 -237
-190 -237 -341 1 -219 111 -338 387 -417 136 -40 197 -46 555 -61 162 -6 297
-14 300 -16 2 -2 5 -30 5 -61 l0 -57 -85 -6 c-98 -7 -169 -24 -176 -43 -18
-47 220 -413 340 -524 43 -39 49 -42 104 -42 55 0 63 3 106 41 86 76 255 298
316 416 35 67 38 98 10 113 -15 8 -196 39 -234 40 -13 0 3 123 17 132 7 4 50
8 97 8 168 0 546 22 615 36 83 17 200 70 260 119 130 107 175 279 115 436 -44
117 -133 180 -265 187 l-80 4 -1 127 c0 120 -2 130 -34 206 -60 142 -201 260
-370 310 -65 19 -235 28 -302 15z"/>
<path d="M9210 1810 l0 -390 100 0 100 0 0 390 0 390 -100 0 -100 0 0 -390z"/>
<path d="M11350 2070 c0 -71 -2 -130 -5 -130 -2 0 -20 11 -40 24 -82 56 -209
43 -279 -28 -54 -54 -71 -111 -71 -241 0 -86 4 -108 27 -156 29 -63 73 -101
133 -118 83 -23 157 -7 215 45 l38 35 7 -41 7 -40 84 0 84 0 0 390 0 390 -100
0 -100 0 0 -130z m-36 -253 c46 -46 46 -178 1 -223 -24 -24 -73 -32 -110 -18
-59 23 -61 234 -3 257 35 14 90 6 112 -16z"/>
<path d="M5376 2113 c-27 -86 -88 -218 -140 -306 -44 -76 -46 -82 -46 -158 l0
-79 180 0 180 0 0 -75 0 -75 100 0 100 0 0 75 0 75 50 0 50 0 0 80 0 80 -50 0
-50 0 0 186 0 185 -46 -3 c-45 -3 -47 -5 -64 -48 -10 -25 -34 -72 -54 -105
-33 -55 -36 -66 -36 -137 l0 -78 -105 0 -106 0 55 68 c98 121 206 311 206 362
0 6 -44 10 -103 10 l-103 0 -18 -57z"/>
<path d="M5960 1790 l0 -372 218 4 c193 4 223 7 273 26 116 46 183 137 198
271 22 212 -46 353 -198 413 -50 19 -80 22 -273 26 l-218 4 0 -372z m390 175
c49 -25 65 -67 65 -175 0 -150 -34 -190 -160 -190 l-65 0 0 190 0 190 65 0
c39 0 78 -6 95 -15z"/>
<path d="M3245 2138 c-3 -7 -58 -161 -123 -343 -66 -181 -123 -340 -126 -352
-7 -23 -7 -23 111 -23 l119 0 13 50 13 51 131 -3 131 -3 15 -47 15 -48 123 0
122 0 -28 78 c-15 42 -75 206 -132 365 l-104 287 -138 0 c-101 0 -139 -3 -142
-12z m179 -315 c20 -68 36 -127 36 -133 0 -6 -31 -10 -75 -10 -85 0 -86 2 -61
81 8 24 24 77 36 117 12 41 23 72 25 70 1 -1 19 -58 39 -125z"/>
<path d="M4190 1991 c-40 -13 -84 -37 -104 -60 -27 -30 -33 -27 -41 19 l-7 40
-84 0 -84 0 0 -285 0 -285 105 0 105 0 0 185 c0 184 0 186 25 210 16 17 35 25
57 25 71 0 78 -22 78 -239 l0 -181 105 0 105 0 0 203 c0 232 -10 289 -60 331
-49 41 -135 57 -200 37z"/>
<path d="M6924 1982 c-123 -43 -175 -126 -175 -281 0 -72 4 -92 28 -140 32
-63 90 -114 156 -133 23 -7 80 -12 127 -12 103 0 155 14 212 57 83 63 119 173
98 298 -19 111 -81 184 -184 214 -68 20 -198 19 -262 -3z m199 -143 c34 -26
51 -88 44 -162 -6 -71 -25 -102 -72 -117 -43 -14 -99 1 -119 33 -39 61 -30
194 14 239 36 35 94 38 133 7z"/>
<path d="M8810 1991 c-40 -13 -84 -37 -104 -60 -27 -30 -33 -27 -41 19 l-7 40
-84 0 -84 0 0 -285 0 -285 105 0 105 0 0 185 c0 184 0 186 25 210 16 17 35 25
57 25 71 0 78 -22 78 -239 l0 -181 105 0 105 0 0 203 c0 232 -10 289 -60 331
-49 41 -135 57 -200 37z"/>
<path d="M9710 1985 c-25 -8 -65 -31 -88 -51 -62 -53 -85 -103 -90 -200 -6
-112 15 -182 72 -238 60 -60 125 -81 246 -80 115 1 179 24 238 88 52 56 67
103 67 206 0 73 -4 93 -29 143 -49 102 -141 148 -290 146 -45 0 -101 -7 -126
-14z m190 -140 c39 -20 54 -70 48 -162 -4 -58 -10 -79 -27 -97 -28 -29 -68
-38 -115 -25 -51 14 -66 48 -66 154 0 82 1 88 29 116 34 33 83 39 131 14z"/>
<path d="M10420 1986 c-103 -23 -158 -67 -167 -135 l-6 -41 101 0 c95 0 100 1
116 25 14 21 24 25 66 25 57 0 90 -24 90 -63 0 -23 -4 -24 -98 -30 -117 -8
-190 -28 -233 -64 -59 -50 -75 -132 -40 -209 27 -59 73 -79 182 -79 76 0 92 3
146 31 l60 31 22 -23 c39 -40 127 -55 204 -33 l37 10 0 57 c0 57 -1 58 -32 67
l-33 10 -5 157 c-4 137 -8 160 -26 185 -55 76 -233 113 -384 79z m200 -351 c0
-45 -34 -81 -86 -91 -46 -9 -88 11 -92 45 -7 46 48 78 136 80 42 1 42 1 42
-34z"/>
<path d="M7420 1983 c0 -5 168 -473 197 -550 4 -9 35 -13 107 -13 l103 0 43
156 c24 85 46 151 50 147 5 -4 26 -73 48 -153 l39 -145 104 -3 104 -2 100 276
c55 152 102 281 103 286 2 5 -42 7 -100 6 l-103 -3 -36 -140 c-20 -77 -39
-153 -43 -169 -4 -15 -9 -26 -12 -23 -3 3 -24 78 -47 168 l-42 164 -105 0
-105 0 -44 -168 c-24 -92 -47 -164 -50 -161 -3 3 -24 78 -47 167 l-40 162
-112 3 c-62 1 -112 -1 -112 -5z"/>
<path d="M4520 1975 c0 -3 48 -128 107 -278 59 -149 106 -280 105 -291 0 -10
-11 -29 -23 -42 -19 -20 -32 -24 -86 -24 l-63 0 0 -64 c0 -36 4 -67 10 -71 5
-3 38 -8 73 -12 128 -12 223 41 282 156 14 28 70 173 124 323 55 150 102 281
106 291 7 15 -2 17 -96 17 l-104 0 -48 -182 c-46 -176 -53 -196 -61 -187 -1 2
-26 85 -53 184 l-50 180 -111 3 c-62 1 -112 0 -112 -3z"/>
</g>
</svg>
