<svg version="1.1" id="Layer_1" xmlns="http://www.w3.org/2000/svg" xmlns:xlink="http://www.w3.org/1999/xlink" x="0px" y="0px"
	 width="100%" viewBox="0 0 1181 354" enable-background="new 0 0 1181 354" xml:space="preserve">
<path fill="#FFFFFF" opacity="1.000000" stroke="none" 
	d="
M869.000000,355.000000 
	C579.333313,355.000000 290.166656,355.000000 1.000000,355.000000 
	C1.000000,237.000000 1.000000,119.000000 1.000000,1.000000 
	C394.666656,1.000000 788.333313,1.000000 1182.000000,1.000000 
	C1182.000000,119.000000 1182.000000,237.000000 1182.000000,355.000000 
	C1077.833374,355.000000 973.666687,355.000000 869.000000,355.000000 
M182.253571,244.735168 
	C177.205566,244.121796 172.157578,243.508438 167.050827,242.055908 
	C167.411652,237.992599 167.772476,233.929306 169.008820,229.832443 
	C189.877914,228.883926 210.760880,228.154175 231.606277,226.832001 
	C236.771317,226.504395 241.814514,224.256104 247.727631,222.992523 
	C253.563782,220.030029 259.399902,217.067535 265.877716,213.936768 
	C269.732941,209.217331 274.466187,204.966187 277.279663,199.691147 
	C285.907715,183.514236 278.868286,160.421432 263.205597,153.748978 
	C257.306335,151.235840 250.482849,150.892181 243.437180,149.425568 
	C243.832382,150.172729 243.680069,150.021210 243.688217,149.878876 
	C243.763672,148.559784 243.861664,147.241898 243.962585,145.924393 
	C245.389679,127.292549 240.838272,110.920517 225.932053,98.516144 
	C212.424576,87.275734 196.650238,82.949745 179.419479,84.407433 
	C173.178192,84.935425 167.094833,87.329926 160.225800,89.036453 
	C147.634003,93.712608 136.347717,100.424995 126.340393,110.032249 
	C124.455132,109.404236 122.606529,108.615898 120.678474,108.175034 
	C110.498787,105.847366 100.471420,105.480789 90.272949,111.073570 
	C86.290703,113.085846 82.023193,114.685089 78.386093,117.197098 
	C71.004501,122.295265 66.229973,129.557724 62.208252,137.867020 
	C54.391773,137.108780 46.844315,137.851746 39.207840,142.119553 
	C34.004173,144.600815 28.612045,146.755508 23.634283,149.628204 
	C11.576601,156.586761 4.064751,166.719589 4.263365,181.131516 
	C4.469911,196.119095 10.200596,208.393814 23.890482,215.779800 
	C34.974693,221.759964 46.972656,225.810150 59.424213,226.728973 
	C82.484650,228.430664 105.632507,228.947708 128.968430,230.868912 
	C128.968430,234.488632 128.968430,238.108337 128.968430,241.735840 
	C122.045860,242.675079 115.276894,243.309021 108.629410,244.578903 
	C102.517838,245.746399 101.588966,247.269653 104.274284,252.756058 
	C113.178665,270.948700 124.474098,287.546478 139.122925,301.639435 
	C140.892456,303.341797 144.126389,303.522003 146.202316,304.451233 
	C150.146210,304.368622 153.895935,304.334167 157.137177,301.164001 
	C170.250824,288.337952 181.616135,274.174835 190.205063,257.957367 
	C195.455795,248.042984 194.451096,246.636108 182.253571,244.735168 
M664.053833,192.339508 
	C664.665527,183.786377 666.465027,175.114471 665.624390,166.706558 
	C664.185669,152.317917 655.671692,142.772659 641.371826,140.766556 
	C626.710815,138.709793 611.712891,139.054474 596.774414,138.343918 
	C596.774414,163.983383 596.774414,188.378387 596.774414,212.841293 
	C608.852478,212.841293 620.679260,213.275101 632.460510,212.728638 
	C646.372620,212.083313 658.170471,207.296341 664.053833,192.339508 
M796.986389,195.598999 
	C798.614197,201.338669 800.242004,207.078339 801.923706,213.008163 
	C807.643372,213.008163 813.130493,212.798889 818.591125,213.089355 
	C821.695129,213.254471 822.865234,212.006790 823.838196,209.273849 
	C829.687988,192.841583 835.729431,176.477615 841.675110,160.079285 
	C842.087891,158.940735 842.244324,157.709213 842.509460,156.566040 
	C835.664185,156.566040 829.198425,156.566040 822.516052,156.566040 
	C819.602722,167.700745 816.728760,178.684677 813.854858,189.668625 
	C813.569702,189.660248 813.284485,189.651886 812.999329,189.643524 
	C810.150635,178.611313 807.302002,167.579086 804.458130,156.565521 
	C797.233704,156.565521 790.453491,156.565521 783.491821,156.565521 
	C780.548218,167.563446 777.647583,178.400894 774.454102,190.332352 
	C773.686401,188.418152 773.247803,187.594528 773.020508,186.716232 
	C770.688354,177.705536 768.444336,168.671448 766.019958,159.685913 
	C765.688965,158.458878 764.541565,156.534988 763.713074,156.503830 
	C756.854187,156.245880 749.981323,156.357803 742.608276,156.357803 
	C749.659607,175.782913 756.395630,194.339417 763.093811,212.791718 
	C770.136108,212.791718 776.928284,212.791718 783.702209,212.791718 
	C786.620361,202.442001 789.481079,192.296204 792.763489,180.654572 
	C794.400757,186.318054 795.626160,190.556946 796.986389,195.598999 
M354.940094,211.952393 
	C355.371490,212.382919 355.799225,213.184555 356.234863,213.188843 
	C363.966400,213.264877 371.698914,213.243942 379.424744,213.243942 
	C379.424744,212.363525 379.514862,212.008224 379.411896,211.722488 
	C371.076141,188.587997 362.764984,165.444321 354.263611,142.370728 
	C353.818756,141.163345 351.774872,139.840134 350.428772,139.788528 
	C343.606842,139.526978 336.762787,139.846222 329.940643,139.587585 
	C326.849976,139.470413 325.687134,140.628113 324.705322,143.416916 
	C319.354004,158.617538 313.753662,173.730362 308.267151,188.883591 
	C305.392792,196.822250 302.576172,204.781815 299.518738,213.332520 
	C304.405518,213.332520 308.702209,213.332535 312.998901,213.332535 
	C323.077728,213.332550 323.074188,213.331360 326.240814,203.744781 
	C326.322662,203.497055 326.699432,203.346741 327.119507,203.003067 
	C331.105988,203.003067 335.265778,203.003067 339.425568,203.003067 
	C343.707916,203.003067 347.990234,203.003067 352.205475,203.003067 
	C353.155060,206.053360 353.941681,208.580170 354.940094,211.952393 
M1131.857666,158.675674 
	C1117.351440,150.354706 1100.923828,156.291489 1097.649536,172.108505 
	C1095.984741,180.150986 1096.195923,189.090851 1097.795654,197.182938 
	C1100.313599,209.920502 1111.708008,216.433594 1124.344238,213.212097 
	C1129.187622,211.977264 1133.506348,208.683762 1137.928955,206.398209 
	C1138.296997,207.929718 1138.838135,210.182251 1139.406494,212.547546 
	C1145.034546,212.547546 1150.582520,212.547546 1156.101318,212.547546 
	C1156.101318,186.545532 1156.101318,160.861023 1156.101318,135.211792 
	C1149.126221,135.211792 1142.519287,135.211792 1135.430054,135.211792 
	C1135.430054,143.797318 1135.430054,152.181366 1135.430054,161.409058 
	C1134.006592,160.278412 1133.262817,159.687683 1131.857666,158.675674 
M575.900513,163.500153 
	C575.900513,157.387573 575.900513,151.275009 575.900513,145.201355 
	C572.560913,145.201355 569.796692,145.201355 567.156982,145.201355 
	C565.755493,148.322311 564.852356,151.463120 563.101440,154.024399 
	C557.483643,162.242340 554.363831,171.017426 555.713501,181.087418 
	C555.742676,181.305099 555.318665,181.583511 555.211365,181.709793 
	C548.536011,181.709793 541.971558,181.709793 535.056091,181.709793 
	C546.100525,168.355682 556.608154,155.183014 561.371582,138.235687 
	C553.974365,138.235687 547.188843,138.235687 541.745239,138.235687 
	C535.727661,150.931641 530.869202,163.402695 524.084961,174.719269 
	C519.521484,182.331375 520.021912,189.623398 520.186523,197.845062 
	C532.157104,197.845062 543.752319,197.845062 555.913025,197.845062 
	C555.913025,203.096954 555.913025,207.974091 555.913025,212.669983 
	C562.899719,212.669983 569.306519,212.669983 576.060181,212.669983 
	C576.060181,207.571732 576.060181,202.802643 576.060181,197.660675 
	C579.508911,197.660675 582.598511,197.660675 585.729858,197.660675 
	C585.729858,192.215836 585.729858,187.166992 585.729858,181.778687 
	C582.300903,181.778687 579.205017,181.778687 575.900513,181.778687 
	C575.900513,175.787003 575.900513,170.143219 575.900513,163.500153 
M1084.031372,178.551025 
	C1084.028320,164.179382 1080.447266,158.641006 1067.213257,156.498703 
	C1059.150146,155.193436 1050.642578,155.624054 1042.460938,156.480835 
	C1038.290405,156.917572 1034.063354,159.534988 1030.474731,162.043503 
	C1026.862427,164.568604 1025.022705,168.534698 1026.223877,173.554337 
	C1032.225708,173.554337 1038.045532,173.673584 1043.852417,173.452866 
	C1045.001831,173.409164 1046.250732,172.211426 1047.197144,171.284027 
	C1050.662598,167.888382 1054.794922,168.083939 1058.834473,169.392029 
	C1062.638428,170.623871 1063.386353,173.876358 1062.671509,178.088425 
	C1060.125854,178.088425 1057.417236,177.696365 1054.865112,178.162048 
	C1047.247925,179.552002 1039.363892,180.412018 1032.206787,183.122925 
	C1025.393677,185.703613 1022.802002,193.495224 1024.235840,201.333008 
	C1025.484619,208.158844 1029.431885,211.785522 1037.113647,213.289536 
	C1047.138916,215.252365 1056.214844,212.996979 1064.418579,207.084152 
	C1070.124878,215.550323 1082.979126,214.622742 1089.229126,212.553406 
	C1090.047729,212.282394 1091.015381,211.002609 1091.069336,210.137360 
	C1091.281616,206.735077 1091.156006,203.311691 1091.156006,199.485718 
	C1084.643921,200.677139 1083.736572,197.275024 1083.983887,192.524597 
	C1084.208740,188.205643 1084.031494,183.865768 1084.031372,178.551025 
M456.819031,222.806381 
	C456.819031,226.452621 456.819031,230.098862 456.819031,233.619965 
	C472.003571,240.135178 487.105408,234.837006 493.816010,219.031677 
	C502.409546,198.791580 509.495209,177.911270 517.473450,156.660126 
	C511.870758,156.660126 507.042969,157.095535 502.331757,156.540848 
	C497.363464,155.955872 495.864685,158.097488 494.853729,162.507294 
	C492.435059,173.057358 489.472656,183.482788 486.729767,193.958527 
	C486.388519,193.962601 486.047272,193.966675 485.706024,193.970749 
	C482.105988,181.493835 478.505920,169.016907 475.022827,156.945312 
	C467.239380,156.945312 460.151520,156.945312 452.671112,156.945312 
	C453.351959,158.833557 453.864716,160.367889 454.453888,161.872299 
	C460.689423,177.794052 466.942291,193.709045 473.178955,209.630356 
	C475.740814,216.170380 472.931335,220.654602 465.910309,221.243881 
	C462.970184,221.490662 460.026245,221.691681 456.819031,222.806381 
M391.602173,213.004059 
	C397.220856,213.004059 402.839508,213.004059 408.848206,213.004059 
	C408.848206,210.901581 408.846863,209.276031 408.848419,207.650497 
	C408.857391,198.317627 408.752502,188.982681 408.919769,179.652649 
	C409.018738,174.134109 412.528717,170.797394 417.641449,170.823959 
	C422.409332,170.848740 424.786621,173.683701 424.921783,179.554398 
	C424.963959,181.386719 424.931061,183.220795 424.931122,185.054062 
	C424.931427,194.310364 424.931274,203.566666 424.931274,212.723145 
	C432.308411,212.723145 439.056030,212.723145 445.972107,212.723145 
	C445.972107,199.634338 446.332428,186.812515 445.875427,174.019897 
	C445.371887,159.923965 435.510284,152.394409 421.776367,155.813965 
	C416.246857,157.190735 411.234619,160.644867 406.122864,163.088593 
	C405.769836,161.353439 405.279236,158.942078 404.804779,156.610077 
	C399.065948,156.610077 393.620819,156.610077 387.809052,156.610077 
	C387.809052,174.842621 387.775330,192.816025 387.928009,210.787827 
	C387.934326,211.534073 389.683746,212.265503 391.602173,213.004059 
M886.931335,202.481201 
	C886.931335,205.916824 886.931335,209.352463 886.931335,212.748962 
	C894.253357,212.748962 901.000732,212.748962 907.943848,212.748962 
	C907.943848,199.528122 908.380310,186.542252 907.825073,173.598907 
	C907.231140,159.754242 897.396851,152.434418 883.852417,155.795975 
	C878.317566,157.169647 873.296936,160.615265 868.150635,163.066711 
	C867.792664,161.382095 867.281982,158.978989 866.773926,156.588226 
	C861.141479,156.588226 855.694641,156.588226 850.028198,156.588226 
	C850.028198,175.408142 850.028198,193.988480 850.028198,212.786011 
	C856.916443,212.786011 863.659546,212.786011 870.620239,212.786011 
	C870.709106,211.967606 870.835388,211.341156 870.836426,210.714493 
	C870.853027,200.548767 870.772522,190.382095 870.889160,180.217636 
	C870.957214,174.281815 874.302856,170.827057 879.574829,170.821136 
	C884.499023,170.815613 886.872437,173.715958 886.918213,179.986862 
	C886.970520,187.152512 886.930969,194.318832 886.931335,202.481201 
M731.541748,205.015839 
	C738.208557,197.614456 739.345642,188.740082 738.284729,179.329880 
	C736.878418,166.855667 729.892639,158.480362 717.836731,156.019485 
	C712.218262,154.872635 706.210388,154.550110 700.508667,155.129578 
	C689.942993,156.203369 681.083069,160.943375 677.606445,171.654999 
	C673.801636,183.377487 673.980042,195.001541 682.569275,205.062210 
	C683.944946,206.673660 685.777161,207.981445 687.594055,209.116348 
	C700.107422,216.932571 719.885559,215.258942 731.541748,205.015839 
M957.585327,200.796371 
	C966.130737,213.605728 978.838745,215.140823 992.497192,213.240768 
	C1008.234253,211.051529 1016.716125,200.961105 1016.984009,184.910568 
	C1017.256409,168.584747 1008.924927,157.846191 993.306152,155.330063 
	C988.122925,154.495056 982.604797,154.532333 977.399231,155.280396 
	C964.340454,157.156937 956.173035,164.983002 954.257202,177.270660 
	C953.040283,185.075638 953.381470,192.897949 957.585327,200.796371 
M942.486877,157.500305 
	C942.486877,150.205566 942.486877,142.910828 942.486877,135.401001 
	C935.336914,135.401001 928.594299,135.401001 921.812195,135.401001 
	C921.812195,161.352158 921.812195,187.041260 921.812195,212.707977 
	C928.859253,212.707977 935.603455,212.707977 942.486938,212.707977 
	C942.486938,194.443970 942.486938,176.472137 942.486877,157.500305 
z"/>
<path fill="#014AAD" opacity="1.000000" stroke="none" 
	d="
M246.913727,222.890717 
	C241.814514,224.256104 236.771317,226.504395 231.606277,226.832001 
	C210.760880,228.154175 189.877914,228.883926 168.508148,229.418716 
	C168.113495,217.883148 168.820892,206.724823 168.149094,195.650162 
	C167.530823,185.457642 162.944153,182.559540 151.982376,183.828171 
	C146.696350,184.166016 141.857880,184.165237 137.121277,184.859406 
	C129.731705,185.942352 129.038559,186.770248 128.925201,194.078506 
	C128.739700,206.036438 128.791977,217.998062 128.743958,229.958130 
	C105.632507,228.947708 82.484650,228.430664 59.424213,226.728973 
	C46.972656,225.810150 34.974693,221.759964 23.890482,215.779800 
	C10.200596,208.393814 4.469911,196.119095 4.263365,181.131516 
	C4.064751,166.719589 11.576601,156.586761 23.634283,149.628204 
	C28.612045,146.755508 34.004173,144.600815 39.901299,142.106979 
	C47.637741,142.094406 54.680721,142.094406 62.256466,142.094406 
	C62.446899,141.040894 62.733189,139.457123 63.019478,137.873337 
	C66.229973,129.557724 71.004501,122.295265 78.386093,117.197098 
	C82.023193,114.685089 86.290703,113.085846 91.092850,111.026764 
	C102.414856,110.204735 112.427284,111.570885 121.282043,118.344269 
	C123.425018,115.366478 125.252808,112.826645 127.080612,110.286819 
	C136.347717,100.424995 147.634003,93.712608 161.036194,89.038132 
	C170.280624,88.998100 178.815796,88.096542 187.130005,89.074112 
	C213.241104,92.144218 232.631577,112.098671 235.170914,137.936508 
	C235.713379,143.456131 235.250000,149.074600 235.250000,155.098419 
	C237.176270,155.098419 238.808319,155.022125 240.431259,155.111404 
	C248.210434,155.539398 255.555206,157.163513 261.515411,162.705719 
	C274.688934,174.955338 275.824646,197.617615 263.691650,213.143570 
	C257.891510,216.482040 252.402618,219.686371 246.913727,222.890717 
z"/>
<path fill="#FE3132" opacity="1.000000" stroke="none" 
	d="
M128.856201,230.413513 
	C128.791977,217.998062 128.739700,206.036438 128.925201,194.078506 
	C129.038559,186.770248 129.731705,185.942352 137.121277,184.859406 
	C141.857880,184.165237 146.696350,184.166016 152.273712,183.961182 
	C158.625504,185.297974 161.081207,188.969254 161.029236,194.457916 
	C160.903854,207.701080 160.736343,220.943985 160.529755,234.186127 
	C160.484390,237.094376 160.205750,239.998978 160.022354,243.111908 
	C162.668915,243.393112 164.794754,243.618988 167.326294,243.936768 
	C172.633423,244.788803 177.534866,245.548920 182.744095,246.526184 
	C187.255951,248.221527 186.464355,251.342255 184.985855,254.037720 
	C181.481384,260.426788 178.257004,267.123749 173.772110,272.787750 
	C165.162598,283.660797 155.756973,293.903473 146.681610,304.407654 
	C144.126389,303.522003 140.892456,303.341797 139.122925,301.639435 
	C124.474098,287.546478 113.178665,270.948700 104.274284,252.756058 
	C101.588966,247.269653 102.517838,245.746399 108.629410,244.578903 
	C115.276894,243.309021 122.045860,242.675079 128.968430,241.735840 
	C128.968430,238.108337 128.968430,234.488632 128.856201,230.413513 
z"/>
<path fill="#020202" opacity="1.000000" stroke="none" 
	d="
M663.937744,192.715302 
	C658.170471,207.296341 646.372620,212.083313 632.460510,212.728638 
	C620.679260,213.275101 608.852478,212.841293 596.774414,212.841293 
	C596.774414,188.378387 596.774414,163.983383 596.774414,138.343918 
	C611.712891,139.054474 626.710815,138.709793 641.371826,140.766556 
	C655.671692,142.772659 664.185669,152.317917 665.624390,166.706558 
	C666.465027,175.114471 664.665527,183.786377 663.937744,192.715302 
M624.462463,156.662445 
	C623.041504,156.662445 621.620544,156.662445 620.162659,156.662445 
	C620.162659,169.841888 620.162659,182.430313 620.162659,194.993500 
	C636.164062,196.511917 641.908875,192.594040 642.686279,179.819336 
	C643.740479,162.494354 639.685852,157.052689 624.462463,156.662445 
z"/>
<path fill="#050505" opacity="1.000000" stroke="none" 
	d="
M796.919006,195.197418 
	C795.626160,190.556946 794.400757,186.318054 792.763489,180.654572 
	C789.481079,192.296204 786.620361,202.442001 783.702209,212.791718 
	C776.928284,212.791718 770.136108,212.791718 763.093811,212.791718 
	C756.395630,194.339417 749.659607,175.782913 742.608276,156.357803 
	C749.981323,156.357803 756.854187,156.245880 763.713074,156.503830 
	C764.541565,156.534988 765.688965,158.458878 766.019958,159.685913 
	C768.444336,168.671448 770.688354,177.705536 773.020508,186.716232 
	C773.247803,187.594528 773.686401,188.418152 774.454102,190.332352 
	C777.647583,178.400894 780.548218,167.563446 783.491821,156.565521 
	C790.453491,156.565521 797.233704,156.565521 804.458130,156.565521 
	C807.302002,167.579086 810.150635,178.611313 812.999329,189.643524 
	C813.284485,189.651886 813.569702,189.660248 813.854858,189.668625 
	C816.728760,178.684677 819.602722,167.700745 822.516052,156.566040 
	C829.198425,156.566040 835.664185,156.566040 842.509460,156.566040 
	C842.244324,157.709213 842.087891,158.940735 841.675110,160.079285 
	C835.729431,176.477615 829.687988,192.841583 823.838196,209.273849 
	C822.865234,212.006790 821.695129,213.254471 818.591125,213.089355 
	C813.130493,212.798889 807.643372,213.008163 801.923706,213.008163 
	C800.242004,207.078339 798.614197,201.338669 796.919006,195.197418 
z"/>
<path fill="#020202" opacity="1.000000" stroke="none" 
	d="
M354.834198,211.529678 
	C353.941681,208.580170 353.155060,206.053360 352.205475,203.003067 
	C347.990234,203.003067 343.707916,203.003067 339.425568,203.003067 
	C335.265778,203.003067 331.105988,203.003067 327.119507,203.003067 
	C326.699432,203.346741 326.322662,203.497055 326.240814,203.744781 
	C323.074188,213.331360 323.077728,213.332550 312.998901,213.332535 
	C308.702209,213.332535 304.405518,213.332520 299.518738,213.332520 
	C302.576172,204.781815 305.392792,196.822250 308.267151,188.883591 
	C313.753662,173.730362 319.354004,158.617538 324.705322,143.416916 
	C325.687134,140.628113 326.849976,139.470413 329.940643,139.587585 
	C336.762787,139.846222 343.606842,139.526978 350.428772,139.788528 
	C351.774872,139.840134 353.818756,141.163345 354.263611,142.370728 
	C362.764984,165.444321 371.076141,188.587997 379.411896,211.722488 
	C379.514862,212.008224 379.424744,212.363525 379.424744,213.243942 
	C371.698914,213.243942 363.966400,213.264877 356.234863,213.188843 
	C355.799225,213.184555 355.371490,212.382919 354.834198,211.529678 
M338.624634,186.679596 
	C341.371033,186.679596 344.117462,186.679596 347.457062,186.679596 
	C344.749969,177.413864 342.271759,168.931519 339.393982,159.081512 
	C336.477081,168.960587 333.959503,177.487244 331.245392,186.679581 
	C333.837036,186.679581 335.778595,186.679581 338.624634,186.679596 
z"/>
<path fill="#020202" opacity="1.000000" stroke="none" 
	d="
M1132.188354,158.886307 
	C1133.262817,159.687683 1134.006592,160.278412 1135.430054,161.409058 
	C1135.430054,152.181366 1135.430054,143.797318 1135.430054,135.211792 
	C1142.519287,135.211792 1149.126221,135.211792 1156.101318,135.211792 
	C1156.101318,160.861023 1156.101318,186.545532 1156.101318,212.547546 
	C1150.582520,212.547546 1145.034546,212.547546 1139.406494,212.547546 
	C1138.838135,210.182251 1138.296997,207.929718 1137.928955,206.398209 
	C1133.506348,208.683762 1129.187622,211.977264 1124.344238,213.212097 
	C1111.708008,216.433594 1100.313599,209.920502 1097.795654,197.182938 
	C1096.195923,189.090851 1095.984741,180.150986 1097.649536,172.108505 
	C1100.923828,156.291489 1117.351440,150.354706 1132.188354,158.886307 
M1134.519775,192.753067 
	C1134.657959,187.685303 1135.451050,182.525116 1134.752686,177.575394 
	C1134.032837,172.474518 1130.018799,170.355164 1124.754639,170.893753 
	C1120.282227,171.351364 1117.546509,174.184021 1117.134766,179.228745 
	C1116.879028,182.363678 1116.968018,185.536514 1117.060181,188.687714 
	C1117.185547,192.974091 1118.561646,196.745911 1123.166260,197.839661 
	C1127.649048,198.904480 1131.827148,198.255661 1134.519775,192.753067 
z"/>
<path fill="#040404" opacity="1.000000" stroke="none" 
	d="
M575.900513,163.999786 
	C575.900513,170.143219 575.900513,175.787003 575.900513,181.778687 
	C579.205017,181.778687 582.300903,181.778687 585.729858,181.778687 
	C585.729858,187.166992 585.729858,192.215836 585.729858,197.660675 
	C582.598511,197.660675 579.508911,197.660675 576.060181,197.660675 
	C576.060181,202.802643 576.060181,207.571732 576.060181,212.669983 
	C569.306519,212.669983 562.899719,212.669983 555.913025,212.669983 
	C555.913025,207.974091 555.913025,203.096954 555.913025,197.845062 
	C543.752319,197.845062 532.157104,197.845062 520.186523,197.845062 
	C520.021912,189.623398 519.521484,182.331375 524.084961,174.719269 
	C530.869202,163.402695 535.727661,150.931641 541.745239,138.235687 
	C547.188843,138.235687 553.974365,138.235687 561.371582,138.235687 
	C556.608154,155.183014 546.100525,168.355682 535.056091,181.709793 
	C541.971558,181.709793 548.536011,181.709793 555.211365,181.709793 
	C555.318665,181.583511 555.742676,181.305099 555.713501,181.087418 
	C554.363831,171.017426 557.483643,162.242340 563.101440,154.024399 
	C564.852356,151.463120 565.755493,148.322311 567.156982,145.201355 
	C569.796692,145.201355 572.560913,145.201355 575.900513,145.201355 
	C575.900513,151.275009 575.900513,157.387573 575.900513,163.999786 
z"/>
<path fill="#040404" opacity="1.000000" stroke="none" 
	d="
M1084.031372,179.043060 
	C1084.031494,183.865768 1084.208740,188.205643 1083.983887,192.524597 
	C1083.736572,197.275024 1084.643921,200.677139 1091.156006,199.485718 
	C1091.156006,203.311691 1091.281616,206.735077 1091.069336,210.137360 
	C1091.015381,211.002609 1090.047729,212.282394 1089.229126,212.553406 
	C1082.979126,214.622742 1070.124878,215.550323 1064.418579,207.084152 
	C1056.214844,212.996979 1047.138916,215.252365 1037.113647,213.289536 
	C1029.431885,211.785522 1025.484619,208.158844 1024.235840,201.333008 
	C1022.802002,193.495224 1025.393677,185.703613 1032.206787,183.122925 
	C1039.363892,180.412018 1047.247925,179.552002 1054.865112,178.162048 
	C1057.417236,177.696365 1060.125854,178.088425 1062.671509,178.088425 
	C1063.386353,173.876358 1062.638428,170.623871 1058.834473,169.392029 
	C1054.794922,168.083939 1050.662598,167.888382 1047.197144,171.284027 
	C1046.250732,172.211426 1045.001831,173.409164 1043.852417,173.452866 
	C1038.045532,173.673584 1032.225708,173.554337 1026.223877,173.554337 
	C1025.022705,168.534698 1026.862427,164.568604 1030.474731,162.043503 
	C1034.063354,159.534988 1038.290405,156.917572 1042.460938,156.480835 
	C1050.642578,155.624054 1059.150146,155.193436 1067.213257,156.498703 
	C1080.447266,158.641006 1084.028320,164.179382 1084.031372,179.043060 
M1058.605835,188.037979 
	C1055.255249,188.806305 1051.631836,189.037903 1048.658813,190.549026 
	C1046.940674,191.422302 1045.130127,194.570679 1045.452026,196.307526 
	C1045.772339,198.035385 1048.521362,200.147064 1050.531494,200.581375 
	C1058.616333,202.328171 1063.855957,196.669434 1062.369019,188.016800 
	C1061.439819,188.016800 1060.469604,188.016800 1058.605835,188.037979 
z"/>
<path fill="#040404" opacity="1.000000" stroke="none" 
	d="
M456.951538,222.359940 
	C460.026245,221.691681 462.970184,221.490662 465.910309,221.243881 
	C472.931335,220.654602 475.740814,216.170380 473.178955,209.630356 
	C466.942291,193.709045 460.689423,177.794052 454.453888,161.872299 
	C453.864716,160.367889 453.351959,158.833557 452.671112,156.945312 
	C460.151520,156.945312 467.239380,156.945312 475.022827,156.945312 
	C478.505920,169.016907 482.105988,181.493835 485.706024,193.970749 
	C486.047272,193.966675 486.388519,193.962601 486.729767,193.958527 
	C489.472656,183.482788 492.435059,173.057358 494.853729,162.507294 
	C495.864685,158.097488 497.363464,155.955872 502.331757,156.540848 
	C507.042969,157.095535 511.870758,156.660126 517.473450,156.660126 
	C509.495209,177.911270 502.409546,198.791580 493.816010,219.031677 
	C487.105408,234.837006 472.003571,240.135178 456.819031,233.619965 
	C456.819031,230.098862 456.819031,226.452621 456.951538,222.359940 
z"/>
<path fill="#030303" opacity="1.000000" stroke="none" 
	d="
M391.111633,213.003952 
	C389.683746,212.265503 387.934326,211.534073 387.928009,210.787827 
	C387.775330,192.816025 387.809052,174.842621 387.809052,156.610077 
	C393.620819,156.610077 399.065948,156.610077 404.804779,156.610077 
	C405.279236,158.942078 405.769836,161.353439 406.122864,163.088593 
	C411.234619,160.644867 416.246857,157.190735 421.776367,155.813965 
	C435.510284,152.394409 445.371887,159.923965 445.875427,174.019897 
	C446.332428,186.812515 445.972107,199.634338 445.972107,212.723145 
	C439.056030,212.723145 432.308411,212.723145 424.931274,212.723145 
	C424.931274,203.566666 424.931427,194.310364 424.931122,185.054062 
	C424.931061,183.220795 424.963959,181.386719 424.921783,179.554398 
	C424.786621,173.683701 422.409332,170.848740 417.641449,170.823959 
	C412.528717,170.797394 409.018738,174.134109 408.919769,179.652649 
	C408.752502,188.982681 408.857391,198.317627 408.848419,207.650497 
	C408.846863,209.276031 408.848206,210.901581 408.848206,213.004059 
	C402.839508,213.004059 397.220856,213.004059 391.111633,213.003952 
z"/>
<path fill="#030303" opacity="1.000000" stroke="none" 
	d="
M886.931335,201.983032 
	C886.930969,194.318832 886.970520,187.152512 886.918213,179.986862 
	C886.872437,173.715958 884.499023,170.815613 879.574829,170.821136 
	C874.302856,170.827057 870.957214,174.281815 870.889160,180.217636 
	C870.772522,190.382095 870.853027,200.548767 870.836426,210.714493 
	C870.835388,211.341156 870.709106,211.967606 870.620239,212.786011 
	C863.659546,212.786011 856.916443,212.786011 850.028198,212.786011 
	C850.028198,193.988480 850.028198,175.408142 850.028198,156.588226 
	C855.694641,156.588226 861.141479,156.588226 866.773926,156.588226 
	C867.281982,158.978989 867.792664,161.382095 868.150635,163.066711 
	C873.296936,160.615265 878.317566,157.169647 883.852417,155.795975 
	C897.396851,152.434418 907.231140,159.754242 907.825073,173.598907 
	C908.380310,186.542252 907.943848,199.528122 907.943848,212.748962 
	C901.000732,212.748962 894.253357,212.748962 886.931335,212.748962 
	C886.931335,209.352463 886.931335,205.916824 886.931335,201.983032 
z"/>
<path fill="#040404" opacity="1.000000" stroke="none" 
	d="
M731.285522,205.270294 
	C719.885559,215.258942 700.107422,216.932571 687.594055,209.116348 
	C685.777161,207.981445 683.944946,206.673660 682.569275,205.062210 
	C673.980042,195.001541 673.801636,183.377487 677.606445,171.654999 
	C681.083069,160.943375 689.942993,156.203369 700.508667,155.129578 
	C706.210388,154.550110 712.218262,154.872635 717.836731,156.019485 
	C729.892639,158.480362 736.878418,166.855667 738.284729,179.329880 
	C739.345642,188.740082 738.208557,197.614456 731.285522,205.270294 
M707.410706,169.008469 
	C700.293274,169.391891 697.342529,171.812012 696.719604,178.739014 
	C696.337463,182.988480 696.461853,187.368073 697.035522,191.597458 
	C697.752747,196.885147 701.320007,199.522964 706.749512,199.651810 
	C712.331421,199.784271 716.252930,197.106461 717.006165,191.661224 
	C717.633728,187.124023 717.591492,182.420853 717.230835,177.839584 
	C716.816284,172.573380 713.744507,169.404739 707.410706,169.008469 
z"/>
<path fill="#030303" opacity="1.000000" stroke="none" 
	d="
M957.377380,200.483795 
	C953.381470,192.897949 953.040283,185.075638 954.257202,177.270660 
	C956.173035,164.983002 964.340454,157.156937 977.399231,155.280396 
	C982.604797,154.532333 988.122925,154.495056 993.306152,155.330063 
	C1008.924927,157.846191 1017.256409,168.584747 1016.984009,184.910568 
	C1016.716125,200.961105 1008.234253,211.051529 992.497192,213.240768 
	C978.838745,215.140823 966.130737,213.605728 957.377380,200.483795 
M990.692993,198.410156 
	C992.377991,195.709259 994.848755,193.195435 995.547668,190.259781 
	C996.407654,186.647217 996.068787,182.659515 995.750366,178.875839 
	C995.185913,172.170151 991.488892,168.936188 985.059814,169.007904 
	C978.688721,169.078964 975.364258,172.405853 974.906433,179.337982 
	C974.731812,181.981873 974.716248,184.644989 974.789062,187.294937 
	C975.070801,197.549408 979.808838,201.099030 990.692993,198.410156 
z"/>
<path fill="#010101" opacity="1.000000" stroke="none" 
	d="
M942.486938,158.000305 
	C942.486938,176.472137 942.486938,194.443970 942.486938,212.707977 
	C935.603455,212.707977 928.859253,212.707977 921.812195,212.707977 
	C921.812195,187.041260 921.812195,161.352158 921.812195,135.401001 
	C928.594299,135.401001 935.336914,135.401001 942.486877,135.401001 
	C942.486877,142.910828 942.486877,150.205566 942.486938,158.000305 
z"/>
<path fill="#060709" opacity="1.000000" stroke="none" 
	d="
M264.002899,213.009430 
	C275.824646,197.617615 274.688934,174.955338 261.515411,162.705719 
	C255.555206,157.163513 248.210434,155.539398 240.431259,155.111404 
	C238.808319,155.022125 237.176270,155.098419 235.250000,155.098419 
	C235.250000,149.074600 235.713379,143.456131 235.170914,137.936508 
	C232.631577,112.098671 213.241104,92.144218 187.130005,89.074112 
	C178.815796,88.096542 170.280624,88.998100 161.392990,88.956276 
	C167.094833,87.329926 173.178192,84.935425 179.419479,84.407433 
	C196.650238,82.949745 212.424576,87.275734 225.932053,98.516144 
	C240.838272,110.920517 245.389679,127.292549 243.962585,145.924393 
	C243.861664,147.241898 243.763672,148.559784 243.688217,149.878876 
	C243.680069,150.021210 243.832382,150.172729 243.437180,149.425568 
	C250.482849,150.892181 257.306335,151.235840 263.205597,153.748978 
	C278.868286,160.421432 285.907715,183.514236 277.279663,199.691147 
	C274.466187,204.966187 269.732941,209.217331 265.299988,213.901184 
	C264.482452,213.580200 264.242676,213.294815 264.002899,213.009430 
z"/>
<path fill="#090507" opacity="1.000000" stroke="none" 
	d="
M166.920609,243.844849 
	C164.794754,243.618988 162.668915,243.393112 160.022354,243.111908 
	C160.205750,239.998978 160.484390,237.094376 160.529755,234.186127 
	C160.736343,220.943985 160.903854,207.701080 161.029236,194.457916 
	C161.081207,188.969254 158.625504,185.297974 152.766937,183.934082 
	C162.944153,182.559540 167.530823,185.457642 168.149094,195.650162 
	C168.820892,206.724823 168.113495,217.883148 168.070374,229.435486 
	C167.772476,233.929306 167.411652,237.992599 167.005951,242.707428 
	C166.961060,243.358932 166.920609,243.844849 166.920609,243.844849 
z"/>
<path fill="#0F0909" opacity="1.000000" stroke="none" 
	d="
M146.441971,304.429443 
	C155.756973,293.903473 165.162598,283.660797 173.772110,272.787750 
	C178.257004,267.123749 181.481384,260.426788 184.985855,254.037720 
	C186.464355,251.342255 187.255951,248.221527 182.935318,246.256088 
	C182.861572,245.553223 182.904419,245.337585 182.947250,245.121964 
	C194.451096,246.636108 195.455795,248.042984 190.205063,257.957367 
	C181.616135,274.174835 170.250824,288.337952 157.137177,301.164001 
	C153.895935,304.334167 150.146210,304.368622 146.441971,304.429443 
z"/>
<path fill="#07090D" opacity="1.000000" stroke="none" 
	d="
M126.710495,110.159531 
	C125.252808,112.826645 123.425018,115.366478 121.282043,118.344269 
	C112.427284,111.570885 102.414856,110.204735 91.448456,110.930084 
	C100.471420,105.480789 110.498787,105.847366 120.678474,108.175034 
	C122.606529,108.615898 124.455132,109.404236 126.710495,110.159531 
z"/>
<path fill="#07090D" opacity="1.000000" stroke="none" 
	d="
M62.613861,137.870178 
	C62.733189,139.457123 62.446899,141.040894 62.256466,142.094406 
	C54.680721,142.094406 47.637741,142.094406 40.239082,141.981079 
	C46.844315,137.851746 54.391773,137.108780 62.613861,137.870178 
z"/>
<path fill="#07090D" opacity="1.000000" stroke="none" 
	d="
M263.691650,213.143570 
	C264.242676,213.294815 264.482452,213.580200 264.979156,213.985321 
	C259.399902,217.067535 253.563782,220.030029 247.320679,222.941620 
	C252.402618,219.686371 257.891510,216.482040 263.691650,213.143570 
z"/>
<path fill="#643F3F" opacity="1.000000" stroke="none" 
	d="
M182.600403,244.928558 
	C182.904419,245.337585 182.861572,245.553223 182.627518,246.038940 
	C177.534866,245.548920 172.633423,244.788803 167.326294,243.936768 
	C166.920609,243.844849 166.961060,243.358932 167.035309,243.126999 
	C172.157578,243.508438 177.205566,244.121796 182.600403,244.928558 
z"/>
<path fill="#FBFBFB" opacity="1.000000" stroke="none" 
	d="
M624.947144,156.662460 
	C639.685852,157.052689 643.740479,162.494354 642.686279,179.819336 
	C641.908875,192.594040 636.164062,196.511917 620.162659,194.993500 
	C620.162659,182.430313 620.162659,169.841888 620.162659,156.662445 
	C621.620544,156.662445 623.041504,156.662445 624.947144,156.662460 
z"/>
<path fill="#EFEFEF" opacity="1.000000" stroke="none" 
	d="
M338.172424,186.679596 
	C335.778595,186.679581 333.837036,186.679581 331.245392,186.679581 
	C333.959503,177.487244 336.477081,168.960587 339.393982,159.081512 
	C342.271759,168.931519 344.749969,177.413864 347.457062,186.679596 
	C344.117462,186.679596 341.371033,186.679596 338.172424,186.679596 
z"/>
<path fill="#F8F8F8" opacity="1.000000" stroke="none" 
	d="
M1134.335938,193.104095 
	C1131.827148,198.255661 1127.649048,198.904480 1123.166260,197.839661 
	C1118.561646,196.745911 1117.185547,192.974091 1117.060181,188.687714 
	C1116.968018,185.536514 1116.879028,182.363678 1117.134766,179.228745 
	C1117.546509,174.184021 1120.282227,171.351364 1124.754639,170.893753 
	C1130.018799,170.355164 1134.032837,172.474518 1134.752686,177.575394 
	C1135.451050,182.525116 1134.657959,187.685303 1134.335938,193.104095 
z"/>
<path fill="#F3F3F3" opacity="1.000000" stroke="none" 
	d="
M1059.052612,188.027390 
	C1060.469604,188.016800 1061.439819,188.016800 1062.369019,188.016800 
	C1063.855957,196.669434 1058.616333,202.328171 1050.531494,200.581375 
	C1048.521362,200.147064 1045.772339,198.035385 1045.452026,196.307526 
	C1045.130127,194.570679 1046.940674,191.422302 1048.658813,190.549026 
	C1051.631836,189.037903 1055.255249,188.806305 1059.052612,188.027390 
z"/>
<path fill="#F8F8F8" opacity="1.000000" stroke="none" 
	d="
M707.823120,169.020294 
	C713.744507,169.404739 716.816284,172.573380 717.230835,177.839584 
	C717.591492,182.420853 717.633728,187.124023 717.006165,191.661224 
	C716.252930,197.106461 712.331421,199.784271 706.749512,199.651810 
	C701.320007,199.522964 697.752747,196.885147 697.035522,191.597458 
	C696.461853,187.368073 696.337463,182.988480 696.719604,178.739014 
	C697.342529,171.812012 700.293274,169.391891 707.823120,169.020294 
z"/>
<path fill="#FAFAFA" opacity="1.000000" stroke="none" 
	d="
M990.357178,198.595062 
	C979.808838,201.099030 975.070801,197.549408 974.789062,187.294937 
	C974.716248,184.644989 974.731812,181.981873 974.906433,179.337982 
	C975.364258,172.405853 978.688721,169.078964 985.059814,169.007904 
	C991.488892,168.936188 995.185913,172.170151 995.750366,178.875839 
	C996.068787,182.659515 996.407654,186.647217 995.547668,190.259781 
	C994.848755,193.195435 992.377991,195.709259 990.357178,198.595062 
z"/>
</svg>